<?xml version="1.0" standalone="no"?>
<!DOCTYPE svg PUBLIC "-//W3C//DTD SVG 1.1//EN" "http://www.w3.org/Graphics/SVG/1.1/DTD/svg11.dtd" >
<svg xmlns="http://www.w3.org/2000/svg">
<metadata></metadata>
<defs>
<font id="dynalightregular" horiz-adv-x="800" >
<font-face units-per-em="2048" ascent="1638" descent="-410" />
<missing-glyph horiz-adv-x="489" />
<glyph unicode="&#xfb01;" horiz-adv-x="940" d="M-346 -518l481 1161q-87 -133 -233 -311l-25 20q170 209 242.5 322.5t126.5 230.5q73 164 141.5 248t147.5 84q38 0 62 -28t24 -70q0 -72 -34.5 -151.5t-98.5 -159.5t-127 -146t-148 -143l-231 -564q222 163 421 410l205 252q67 82 115 82q27 0 40 -15t13 -36 q0 -40 -24 -93l-168 -405q-11 -33 -11 -37q0 -18 21 -18q33 0 76 55l184 225l25 -20l-222 -273q-48 -58 -83 -80t-76 -22q-30 0 -50 17t-20 44q0 40 45 142l160 370q4 8 4 11q0 12 -12 12q-10 0 -19 -12l-178 -219q-79 -99 -160.5 -182t-142 -135.5t-174.5 -145.5l-156 -375 zM248 618q159 155 245.5 283t86.5 238q0 55 -33 55t-68 -51t-78 -152zM788 1024q0 39 25.5 64.5t56.5 25.5q29 0 46.5 -21t17.5 -51q0 -35 -22.5 -63.5t-57.5 -28.5q-28 0 -47 22.5t-19 51.5z" />
<glyph unicode="&#xfb02;" horiz-adv-x="915" d="M-346 -518l481 1161q-87 -133 -233 -311l-25 20q170 209 242.5 322.5t126.5 230.5q73 164 141.5 248t147.5 84q38 0 62 -28t24 -70q0 -72 -34.5 -151.5t-98.5 -159.5t-127 -146t-148 -143l-233 -568q200 146 397 383q134 162 213 275t108 169.5t68 149.5l115 271h118 l-442 -1049q-8 -24 -8 -37q0 -18 18 -18q33 0 76 55l184 225l25 -20l-221 -273q-49 -59 -81 -80.5t-71 -21.5q-31 0 -50 16.5t-19 44.5q0 40 45 142l188 450q-62 -98 -215 -288q-79 -99 -160.5 -182t-142 -135.5t-174.5 -145.5l-156 -375zM248 618q159 155 245.5 283 t86.5 238q0 55 -33 55t-68 -51t-78 -152z" />
<glyph horiz-adv-x="0" />
<glyph horiz-adv-x="682" />
<glyph unicode=" "  horiz-adv-x="489" />
<glyph unicode="&#x09;" horiz-adv-x="489" />
<glyph unicode="&#xa0;" horiz-adv-x="489" />
<glyph unicode="!" horiz-adv-x="444" d="M-90 66q0 29 20.5 49t49.5 20t50 -20t21 -49t-21 -50.5t-50 -21.5t-49.5 21.5t-20.5 50.5zM14 199l482 1198h141l-596 -1198h-27z" />
<glyph unicode="&#x22;" horiz-adv-x="331" d="M141 993l119 365h125l-199 -365h-45zM307 993l121 365h125l-199 -365h-47z" />
<glyph unicode="#" horiz-adv-x="673" d="M-51 436l20 45h127l109 246h-135l20 45h133l92 209h52l-93 -209h144l92 209h49l-92 -209h137l-20 -45h-135l-109 -246h143l-20 -45h-141l-103 -231h-49l100 231h-141l-102 -231h-52l103 231h-129zM147 481h144l106 246h-141z" />
<glyph unicode="$" horiz-adv-x="679" d="M-104 242l84 67q62 -113 129 -147l139 426q-37 46 -56.5 72t-45.5 67.5t-38 79t-12 74.5q0 69 26 123t69 85t93 46.5t103 15.5q29 0 41 -2l53 162l45 -17l-51 -155q105 -32 174 -121l-84 -70q-56 103 -106 137l-131 -403q67 -82 104 -150.5t37 -144.5q0 -86 -47.5 -152.5 t-115 -97.5t-138.5 -31q-15 0 -27 3l-65 -201l-45 12l61 195q-120 26 -196 127zM154 147q8 -2 22 -2q76 0 134.5 58t58.5 151q0 74 -86 189zM195 924q0 -46 24.5 -90t73.5 -107l123 381q-24 4 -37 4q-78 0 -131 -48t-53 -140z" />
<glyph unicode="%" horiz-adv-x="1077" d="M41 0l803 1219h84l-803 -1219h-84zM55 817q0 98 50 192.5t128 153t156 58.5q65 0 104 -44.5t39 -117.5q0 -98 -49.5 -192t-127 -152t-156.5 -58q-63 0 -103.5 44t-40.5 116zM147 793q0 -93 66 -93q51 0 105.5 61.5t89 152.5t34.5 171q0 95 -63 95q-52 0 -107 -62.5 t-90 -153.5t-35 -171zM434 162q0 97 50 191t128 152t156 58q65 0 104 -44.5t39 -117.5q0 -97 -50 -191t-127.5 -152t-155.5 -58q-65 0 -104.5 44.5t-39.5 117.5zM524 135q0 -47 18.5 -69.5t47.5 -22.5q52 0 106.5 62t88.5 152t34 171q0 94 -63 94q-52 0 -107 -62.5t-90 -153 t-35 -171.5z" />
<glyph unicode="&#x26;" horiz-adv-x="886" d="M-33 170q0 67 33 129.5t83.5 107t98 76.5t89.5 54.5t46 25.5q9 3 9 10q0 11 -16 21.5t-34.5 19.5t-34.5 29t-16 47q0 71 92.5 146t176.5 75q6 0 16 -0.5t35.5 -7t45 -17t35.5 -34.5t17 -57l-104 -84q8 21 8 45q0 47 -22 75.5t-58 28.5q-52 0 -89.5 -31.5t-37.5 -74.5 q0 -46 66 -86q53 -32 53 -60q0 -26 -47 -45q-76 -32 -155 -97.5t-124 -154.5q-35 -75 -35 -135q0 -56 31 -87.5t92 -31.5q72 0 139 42.5t109 107.5h-33q-77 0 -116 38t-39 93q0 60 40.5 98.5t104.5 38.5q46 0 84.5 -33.5t38.5 -99.5q0 -17 -4 -45h278l-45 -90h-262 q-46 -95 -138 -159t-194 -64q-27 0 -54 4.5t-57.5 17t-53 32.5t-37.5 54t-15 78zM324 367q0 -29 23.5 -49.5t72.5 -20.5h90q6 24 6 47q0 51 -26 78t-70 27q-37 0 -66.5 -21.5t-29.5 -60.5z" />
<glyph unicode="'" horiz-adv-x="163" d="M141 993l119 365h125l-199 -365h-45z" />
<glyph unicode="(" horiz-adv-x="602" d="M29 289q0 224 82 424q86 203 281.5 440t385.5 371h33q-331 -310 -516.5 -695t-185.5 -723q0 -108 22 -212h-33q-69 188 -69 395z" />
<glyph unicode=")" horiz-adv-x="602" d="M-197 -106q316 300 509.5 682.5t193.5 723.5q0 102 -23 224h31q78 -135 78 -357q0 -647 -756 -1273h-33z" />
<glyph unicode="*" horiz-adv-x="491" d="M172 1032l31 90l151 -75l-26 172h98l-29 -172l154 75l29 -90l-170 -26l120 -136l-79 -53l-74 162l-74 -162l-82 53l121 136z" />
<glyph unicode="+" d="M6 547l33 76h262l113 274h84l-113 -274h279l-31 -76h-279l-110 -277h-84l110 277h-264z" />
<glyph unicode="," horiz-adv-x="268" d="M-131 -102q80 51 90 94q-26 6 -42.5 25t-16.5 44q0 31 21 52.5t50 21.5q31 0 52.5 -22t21.5 -54q0 -49 -49 -103.5t-111 -88.5z" />
<glyph unicode="-" d="M55 412l39 116h506l-39 -116h-506z" />
<glyph unicode="." horiz-adv-x="268" d="M-100 63q0 29 21 50.5t50 21.5q31 0 52.5 -21.5t21.5 -50.5q0 -31 -21.5 -52t-52.5 -21q-29 0 -50 21t-21 52z" />
<glyph unicode="/" horiz-adv-x="526" d="M-250 0l938 1397h88l-938 -1397h-88z" />
<glyph unicode="0" horiz-adv-x="987" d="M-41 311q0 129 40 263.5t108.5 248.5t154.5 204.5t185 142t192 51.5q130 0 204.5 -87t74.5 -247q0 -129 -40 -263.5t-108.5 -248.5t-154.5 -204.5t-185 -142t-192 -51.5q-129 0 -204 87.5t-75 246.5zM82 274q0 -125 41 -185t127 -60q84 0 183 92.5t178 227t132.5 293 t53.5 282.5q0 252 -170 252q-113 0 -243 -154t-216 -367.5t-86 -380.5z" />
<glyph unicode="1" horiz-adv-x="634" d="M0 651l512 553h127l-504 -1204h-123l457 1087l-434 -469z" />
<glyph unicode="2" horiz-adv-x="884" d="M-240 12q101 79 235.5 172.5t230 156t197 141.5t164.5 146.5t103.5 152.5t40.5 175q0 92 -52.5 152.5t-137.5 60.5q-81 0 -152.5 -34.5t-119 -89.5t-74.5 -121.5t-27 -132.5q0 -77 35 -129l-123 -72q-17 63 -17 112q0 97 41 191.5t110 166.5t167 116.5t205 44.5 q121 0 197.5 -73.5t76.5 -186.5q0 -99 -40 -187.5t-101.5 -153.5t-157.5 -135.5t-184.5 -122.5t-207.5 -126.5t-202 -135.5q29 13 52 17t71 4q36 0 121.5 -5t132.5 -5q60 0 97 12.5t71 44.5l37 -21l-135 -163q-52 6 -142.5 20.5t-166.5 23.5t-152 9q-99 0 -168 -55z" />
<glyph unicode="3" horiz-adv-x="858" d="M-258 -104q96 10 197 38t204 78.5t183.5 115.5t131 157t50.5 196q0 45 -8.5 83.5t-28.5 72.5t-57 54t-88 20q-46 0 -109 -23l-14 43q53 22 94 29q54 14 105.5 38.5t98 60t75 86t28.5 108.5q0 61 -33 93t-88 32q-88 0 -155 -62t-103 -162l-80 103q178 162 359 162 q98 0 165.5 -47.5t67.5 -127.5q0 -54 -28.5 -101.5t-77 -81.5t-101 -58t-112.5 -41q113 -17 174 -92t61 -178q0 -86 -35.5 -164.5t-94 -138.5t-138 -112t-163 -88t-173 -64.5t-164.5 -44t-141 -23.5z" />
<glyph unicode="4" horiz-adv-x="933" d="M-156 256q245 197 477 467t379 496l113 -56q-96 -150 -372.5 -441t-497.5 -435q93 49 186 49q64 0 177 -21t157 -24l248 590h123l-248 -592q119 3 172 28l-19 -45q-90 -35 -182 -49l-92 -223h-123l88 213h-14q-69 0 -195.5 22.5t-185.5 22.5q-99 0 -172 -37z" />
<glyph unicode="5" horiz-adv-x="886" d="M-219 -104q96 10 197 38t204 78.5t183.5 115.5t131 157t50.5 196q0 42 -8 77.5t-27.5 68t-56.5 51t-90 18.5q-162 0 -302 -164l-57 66l334 580q70 26 135 26q59 0 158 -25.5t147 -25.5q75 0 156 47l14 -33q-169 -127 -291 -127q-51 0 -98.5 16t-83.5 32t-61 16 q-20 0 -56 -8l-266 -469q135 139 309 139q137 0 213 -79t76 -195q0 -86 -35.5 -164.5t-94 -138.5t-138 -112t-163 -88t-172.5 -64.5t-164 -44t-140 -23.5z" />
<glyph unicode="6" horiz-adv-x="962" d="M-59 317q0 110 41.5 219t113 202t169.5 175.5t209.5 143t234.5 100.5t243 53v-34q-251 -51 -468.5 -205t-325.5 -355q76 78 173.5 128.5t205.5 50.5q74 0 130.5 -27t88 -72t46.5 -96.5t15 -107.5q0 -89 -44.5 -181.5t-117 -166t-173 -120.5t-203.5 -47q-156 0 -247 95 t-91 245zM78 322q0 -59 10 -108t32.5 -93t65.5 -69t103 -25q103 0 195.5 69.5t146 177t53.5 218.5q0 107 -47 173t-152 66q-80 0 -160 -40.5t-131.5 -90t-89.5 -104.5q-26 -82 -26 -174z" />
<glyph unicode="7" horiz-adv-x="729" d="M-78 0q50 149 119.5 280.5t138 224.5t155.5 187t156 156.5t157 143.5t143 138q-16 -4 -46.5 -11t-140 -18t-235.5 -11q-88 0 -143.5 -21t-106.5 -86l-35 18l141 224q148 -37 326 -37q212 0 348 43l27 -23q-62 -73 -139 -152t-138 -139t-129.5 -132t-126.5 -147.5 t-115 -167.5t-109 -210.5t-95 -259.5h-152z" />
<glyph unicode="8" horiz-adv-x="882" d="M-94 250q0 66 25.5 122t63 94.5t98 75t113.5 61t126 54.5q4 1 6 2q-115 139 -115 271q0 127 100.5 209t229.5 82q100 0 170 -61.5t70 -166.5q0 -59 -23.5 -107.5t-71 -87t-95.5 -65.5t-120 -59q7 -8 34.5 -38t37 -40.5t32 -38.5t32 -42.5t25 -41.5t21.5 -48t11.5 -48.5 t5.5 -54.5q0 -106 -66 -184t-166 -115t-217 -37q-148 0 -237.5 70.5t-89.5 193.5zM-10 252q0 -100 63 -157.5t180 -57.5q133 0 231.5 80.5t98.5 204.5q0 26 -9 54t-20 49t-35 51.5t-38.5 47t-47 51.5t-46.5 50q-70 -30 -115 -51.5t-100 -57t-86.5 -70.5t-53.5 -85.5 t-22 -108.5zM346 961q0 -71 28.5 -129.5t80.5 -120.5q60 27 103.5 53.5t82 61.5t58.5 79t20 96q0 75 -40.5 122.5t-115.5 47.5q-93 0 -155 -57t-62 -153z" />
<glyph unicode="9" horiz-adv-x="962" d="M-111 -12v35q251 51 469 204.5t326 352.5q-177 -177 -379 -177q-60 0 -108.5 18t-80 48t-52.5 70t-30 82t-9 86q0 89 44.5 181.5t117 165.5t173 120t203.5 47q156 0 247 -95t91 -245q0 -131 -58.5 -260.5t-158.5 -235t-228.5 -190.5t-275.5 -138.5t-291 -68.5zM158 707 q0 -107 47.5 -173.5t150.5 -66.5q115 0 218 73.5t161 161.5q31 88 31 175q0 59 -10 108t-32.5 92.5t-66 68.5t-104.5 25q-102 0 -194.5 -69.5t-146.5 -176.5t-54 -218z" />
<glyph unicode=":" horiz-adv-x="432" d="M-90 63q0 29 21.5 50.5t50.5 21.5q30 0 51.5 -21.5t21.5 -50.5q0 -31 -21 -52t-52 -21q-30 0 -51 21t-21 52zM127 557q0 31 21.5 52.5t50.5 21.5q31 0 52 -21.5t21 -52.5t-21 -52.5t-52 -21.5q-29 0 -50.5 21.5t-21.5 52.5z" />
<glyph unicode=";" horiz-adv-x="432" d="M-123 -102q83 53 92 94q-26 6 -42.5 25t-16.5 44q0 31 21.5 52.5t50.5 21.5q31 0 52 -22t21 -54q0 -49 -48.5 -103.5t-110.5 -88.5zM127 557q0 31 21.5 52.5t50.5 21.5q31 0 52 -21.5t21 -52.5t-21 -52.5t-52 -21.5q-29 0 -50.5 21.5t-21.5 52.5z" />
<glyph unicode="&#x3c;" d="M59 584l570 313l-43 -106l-402 -222l279 -280l-33 -76z" />
<glyph unicode="=" d="M-8 444l31 76h583l-31 -76h-583zM63 651l31 76h586l-33 -76h-584z" />
<glyph unicode="&#x3e;" d="M29 213l43 106l401 222l-278 280l32 76l371 -371z" />
<glyph unicode="?" horiz-adv-x="839" d="M51 63q0 29 21.5 50.5t50.5 21.5q31 0 52.5 -21.5t21.5 -50.5q0 -31 -21.5 -52t-52.5 -21q-29 0 -50.5 21t-21.5 52zM133 199q32 84 82 164t102.5 142.5t109.5 124.5t107 121t90 121.5t63.5 137t23.5 155.5q0 79 -40.5 137t-111.5 58q-114 0 -205.5 -96t-91.5 -213 q0 -62 34.5 -97.5t96.5 -35.5q12 0 24 2t21 4.5t18.5 7.5t15 8.5t13 10t10 9t7.5 8.5l6 5l12 -27q-39 -43 -91 -64.5t-95 -21.5q-73 0 -126.5 45t-53.5 121q0 97 67.5 184.5t168.5 137t202 49.5q107 0 177.5 -68t70.5 -172q0 -81 -30 -159t-80.5 -143t-112.5 -128 t-129.5 -125.5t-127.5 -123.5t-110.5 -133.5t-75.5 -145.5h-41z" />
<glyph unicode="@" horiz-adv-x="1425" d="M72 350q0 129 37 258t101 239.5t153 207.5t190 165t215 107t225 39q177 0 276 -98.5t99 -268.5q0 -117 -50.5 -242.5t-130 -224.5t-184 -163t-204.5 -64q-23 0 -41.5 13.5t-18.5 39.5q0 43 33 125q10 24 36.5 86t46 109t19.5 51q0 8 -8 8t-14 -12q-2 -2 -38 -53 t-71.5 -99.5t-77.5 -102.5t-65 -77q-87 -90 -137 -90q-28 0 -50 22.5t-22 77.5q0 67 45 155.5t115 169t166 140.5t188 70v-16q-75 -22 -148 -83t-123 -132.5t-81 -141t-31 -114.5q0 -37 19 -37q25 0 114.5 106.5t182.5 233.5q94 128 118 151q26 25 54 25q44 0 49 -33 q5 -16 -10 -45l-181 -428q-8 -20 -8 -31q0 -20 23 -20q54 0 121.5 52.5t127 135t100 198t40.5 228.5q0 182 -69 260t-202 78q-132 0 -257.5 -62.5t-221.5 -165t-169 -229t-111.5 -260.5t-38.5 -254q0 -163 75 -247t211 -84q116 0 244 61l21 -35q-150 -84 -316 -84 q-69 0 -132 21t-116.5 64.5t-85.5 120.5t-32 179z" />
<glyph unicode="A" horiz-adv-x="1470" d="M-139 174q0 112 76.5 194.5t210.5 124.5t309 42h63q160 272 282 450t218 276t169 135.5t150 37.5q65 0 101.5 -38.5t36.5 -117.5q0 -117 -84 -322l-179 -421h101l-43 -93h-96l-187 -442h-133l186 442h-436q-6 -14 -14 -28q-241 -432 -531 -432q-88 0 -144 52t-56 140z M-90 178q0 -62 39 -103.5t121 -41.5q47 0 92.5 22t75 45.5t71.5 83t58.5 86.5t60.5 105q4 7 6.5 10.5t5.5 9.5t6 11l23 36h-59q-137 0 -238 -22.5t-156 -61t-80.5 -83.5t-25.5 -97zM659 535h420l178 421q48 117 69 170t39.5 113.5t18.5 93.5q0 64 -57 64q-37 0 -64.5 -8.5 t-67 -37.5t-83.5 -85t-109 -152t-148.5 -237.5t-195.5 -341.5z" />
<glyph unicode="B" horiz-adv-x="1273" d="M-190 139q0 78 57.5 133.5t148.5 55.5q64 0 158 -62q18 41 121 307q57 150 83.5 217t78 178.5t94.5 172.5q102 148 186 207t201 86q27 8 68 8q106 0 187 -66.5t81 -181.5q0 -40 -12.5 -76t-29 -61t-47.5 -53t-53.5 -44t-62.5 -42q-24 -16 -55 -35t-50 -30t-37 -24 t-26 -25t-8 -26q0 -18 32.5 -85t65.5 -162t33 -181q0 -162 -120 -265t-298 -103q-71 0 -145 28t-121 58.5t-113 81.5q-115 -164 -258 -164q-63 0 -111 38.5t-48 114.5zM-141 135q0 -46 27 -73t73 -27q60 0 103.5 40.5t87.5 133.5q-87 63 -144 63q-69 0 -108 -42t-39 -95z M262 203q56 -42 82.5 -60.5t74.5 -47.5t89.5 -41.5t83.5 -12.5q127 0 212 90t85 211q0 66 -28.5 147.5t-56.5 146.5t-28 91q0 16 6.5 29.5t25 30.5t33 28t52 36.5t59.5 41.5q191 137 191 299q0 94 -55 143t-150 49q-55 0 -92 -22q-28 -17 -57.5 -50t-54.5 -69t-55 -94 t-51 -101.5t-52 -117.5t-47 -115t-47.5 -121.5t-43.5 -111.5q-106 -270 -176 -379z" />
<glyph unicode="C" horiz-adv-x="1054" d="M16 362q0 136 39.5 274.5t106 254t153.5 218t179.5 173t186.5 111.5t173 41q128 0 209.5 -73.5t81.5 -191.5q0 -130 -100 -258t-234 -174l-20 27q113 54 177 163t64 253q0 97 -43.5 157t-122.5 60q-98 0 -203 -66.5t-193 -176.5t-159.5 -242.5t-112 -275.5t-40.5 -265 q0 -165 65 -245.5t176 -80.5q20 0 44 3t72 15t106 44.5t112 82.5l27 -36q-49 -47 -103.5 -81.5t-97 -51t-86.5 -26.5t-65.5 -11.5t-40.5 -1.5q-47 0 -93 11t-93.5 38.5t-83.5 69t-58.5 109t-22.5 152.5z" />
<glyph unicode="D" horiz-adv-x="1409" d="M-152 129q0 81 64 140t158 59q71 0 153 -72q37 74 139 317l130 310h-119q-70 0 -129.5 18.5t-100.5 61t-41 102.5q0 68 45.5 134t126 118.5t202 84.5t261.5 32q110 0 212.5 -40t183.5 -112.5t129.5 -184.5t48.5 -247q0 -96 -26 -198.5t-73 -198.5t-115 -182t-148 -150 t-177 -101.5t-197 -37.5q-94 0 -166 39t-145 106q-115 -141 -260 -141q-61 0 -108.5 37t-47.5 106zM-102 133q0 -45 26.5 -71.5t71.5 -26.5q58 0 103 38t94 124q-82 75 -140 75q-70 0 -112.5 -44t-42.5 -95zM213 1100q0 -62 43.5 -94.5t151.5 -32.5h120l148 350h129 l-148 -350h322l-37 -90h-321l-195 -463q-66 -152 -121 -236q50 -45 82 -70t83 -48t101 -23q100 0 194 51.5t165.5 138.5t126.5 195.5t83.5 228t28.5 230.5q0 109 -27 200t-80 161.5t-140.5 109.5t-200.5 39q-220 0 -364 -91.5t-144 -205.5z" />
<glyph unicode="E" horiz-adv-x="927" d="M-51 276q0 67 23.5 124t61 96.5t82.5 73.5t90 61t82.5 52t61 53.5t23.5 58.5q0 11 -18.5 69t-18.5 115q0 12 2 20q-87 -15 -148 -22l-24 43q96 9 176 24q13 69 47.5 138t84 126t116.5 92.5t137 35.5q53 0 87 -34.5t34 -88.5q0 -88 -107.5 -163.5t-296.5 -125.5 q5 -27 25 -82t20 -86q0 -50 -22 -91t-58 -69.5t-79 -55.5t-85.5 -57.5t-78.5 -66.5t-58 -90.5t-22 -122.5q0 -63 24.5 -114.5t63.5 -83t85 -48t93 -16.5q37 0 67 4t76 18t101 48t115 86l24 -33q-126 -107 -225.5 -144.5t-212.5 -37.5q-151 0 -249.5 77t-98.5 217zM440 1067 q150 39 230 102t80 148q0 74 -68 74q-31 0 -71.5 -23t-79 -62.5t-65 -102t-26.5 -132.5v-4z" />
<glyph unicode="F" horiz-adv-x="1310" d="M90 1104q0 87 58.5 149.5t144 90.5t182.5 28q60 0 140 -29t187 -77.5t175 -71.5q90 123 197.5 181.5t193.5 58.5q71 0 107 -34t36 -85q0 -64 -50 -114.5t-124.5 -76.5t-156.5 -26q-70 0 -144 12q-5 -12 -21 -44.5t-24 -51.5l-186 -447h313l-41 -96h-313l-199 -471h-127 l201 469q-241 -5 -307 -35l-6 29q137 79 354 98l190 445q35 78 62 122q-76 16 -160 41t-178.5 56t-134.5 43q-67 18 -119 18q-60 0 -102.5 -17t-62.5 -44t-28 -50t-8 -45q0 -56 44.5 -95.5t115.5 -39.5q76 0 150 29l-41 -96q-53 -17 -103 -17q-92 0 -153.5 50.5t-61.5 142.5 zM1071 1167q68 -14 121 -14q118 0 182 58t64 120q0 31 -19.5 50.5t-54.5 19.5q-67 0 -146 -62.5t-147 -171.5z" />
<glyph unicode="G" horiz-adv-x="1118" d="M31 498q0 142 56 285.5t147 257.5t201 204.5t224 139.5t209 49q128 0 209.5 -68t81.5 -176q0 -123 -99.5 -242t-234.5 -162l-18 27q113 50 176.5 150.5t63.5 232.5q0 90 -43 145.5t-121 55.5q-82 0 -170.5 -41t-165.5 -109.5t-147 -159.5t-119.5 -188.5t-79 -199.5 t-29.5 -189q0 -143 66 -213t176 -70q137 0 284 115l109 252h127l-150 -354q-53 -133 -140 -226.5t-243 -152.5l-14 28q50 20 92.5 57t72.5 84t47.5 80t34.5 73q3 8 5 12l25 61q-135 -90 -281 -90q-47 0 -93 9.5t-93.5 33.5t-83.5 60.5t-58.5 95.5t-23.5 133z" />
<glyph unicode="H" horiz-adv-x="1343" d="M49 1022q185 191 363.5 301.5t277.5 110.5q105 0 105 -119q0 -110 -93 -326l-131 -305q81 -58 134 -160h249l367 873h127l-367 -873h103l-39 -90h-101l-182 -434h-127v2q4 86 4 123q0 184 -41 309h-233l-189 -434h-122l186 434q-105 6 -154 50.5t-49 105.5q0 48 22 82.5 t57 51.5t67.5 24.5t62.5 7.5q61 0 123 -19l106 252q42 96 62.5 146.5t42.5 118.5t22 102q0 41 -28 41q-9 0 -27 -4t-78.5 -32.5t-125.5 -77t-166.5 -152.5t-204.5 -244zM197 614q0 -36 33.5 -63t97.5 -27h49l76 176q-50 17 -113 17q-65 0 -104 -29t-39 -74zM504 524h158 q-43 78 -105 125zM739 434q41 -119 41 -287v-38l138 325h-179z" />
<glyph unicode="I" horiz-adv-x="913" d="M-41 133l98 62q-12 -49 -12 -82q0 -43 20.5 -65.5t51.5 -22.5q77 0 165.5 80t180.5 239q-52 -10 -94 -10q-52 0 -102 17t-92.5 50t-68.5 89t-26 126q0 117 53.5 241t136 224t177 181.5t183.5 126.5t148 45q52 0 84.5 -53.5t32.5 -155.5q0 -236 -197 -668q-2 -5 -6 -14.5 t-6 -14.5q46 47 129 140l33 -33q-8 -8 -30.5 -33t-31.5 -34.5t-28.5 -30t-31 -31.5t-28.5 -27t-31.5 -28t-29.5 -23q-235 -446 -504 -446q-79 0 -125.5 41.5t-48.5 109.5zM209 623q0 -111 60.5 -173.5t148.5 -62.5q39 0 76 12q51 97 102 217q213 514 213 697q0 84 -49 84 q-29 0 -81.5 -33.5t-113.5 -89t-124.5 -133t-115 -161t-84 -178.5t-32.5 -179z" />
<glyph unicode="J" horiz-adv-x="1064" d="M-121 -512q0 293 379 565q-205 163 -205 467q0 128 38 252.5t101.5 223.5t146.5 184t172 141.5t179 88.5t168 32q84 0 130 -48.5t46 -172.5q0 -234 -184 -664q-16 -34 -49 -110.5t-51 -116.5q20 8 57.5 25t54.5 24l17 -41q-97 -42 -158 -72q-65 -148 -146 -301 q37 -9 78 -18l-14 -41q-11 2 -41 7.5t-45 8.5q-303 -567 -553 -567q-56 0 -88.5 39.5t-32.5 93.5zM-2 -473q0 -68 53 -68q59 0 142 73.5t180 219.5q51 79 104 191q-91 28 -168 75q-311 -243 -311 -491zM190 526q0 -166 30 -269.5t93 -164.5q142 94 299 172q27 71 70 190 t59 162q102 256 156.5 423.5t54.5 260.5q0 55 -21 80t-67 25q-77 0 -169.5 -48t-180.5 -134t-161.5 -194t-118 -241t-44.5 -262zM358 55q49 -37 142 -67q26 57 88 211q-112 -62 -230 -144z" />
<glyph unicode="K" horiz-adv-x="1202" d="M49 1022q185 191 363.5 301.5t277.5 110.5q105 0 105 -119q0 -110 -93 -326l-426 -989h-122l421 989q42 96 62.5 146.5t42.5 118.5t22 102q0 41 -28 41q-9 0 -27 -4t-78.5 -32.5t-125.5 -77t-166.5 -152.5t-204.5 -244zM625 756q0 35 51 94q125 155 357 325.5t431 258.5 l19 -144q-96 -20 -188.5 -55.5t-163.5 -75t-134.5 -83t-108 -82.5t-77 -71t-47.5 -51l-16 -18q-4 -95 -4 -150q0 -22 1 -38q1 -118 5 -207t11 -190t21.5 -172.5t35.5 -132t54 -91.5t76 -31q13 0 24.5 1.5t23.5 6t19 7.5t20 12.5t18.5 13.5t22 17t22.5 18l24 -33 q-39 -36 -64.5 -54.5t-68 -35t-90.5 -16.5q-76 0 -127.5 43t-88.5 150.5t-51 301.5q-9 129 -9 300q0 86 2 182z" />
<glyph unicode="L" horiz-adv-x="1079" d="M-180 129q0 81 63.5 140t157.5 59q81 0 174 -72q38 73 77.5 178.5t62 179.5t59.5 201q45 155 96.5 270t99.5 180.5t103 104.5t99.5 51.5t96.5 12.5q97 0 154 -51.5t57 -127.5q0 -72 -50.5 -131t-127.5 -88l-29 117q59 2 103.5 33t44.5 88q0 51 -38.5 87t-119.5 36 q-47 0 -88 -23.5t-76.5 -75.5t-62 -98.5t-56 -130.5t-44 -131.5t-41.5 -138.5l-1.5 -6t-1.5 -5l-2 -6q-118 -399 -239 -581q72 -56 134 -86.5t138 -30.5q50 0 85 6t69.5 23.5t58.5 53t39 89.5l45 -12q-86 -262 -315 -262q-88 0 -159.5 39.5t-147.5 107.5 q-120 -143 -263 -143q-61 0 -108 36.5t-47 106.5zM-131 133q0 -45 26.5 -71.5t71.5 -26.5q112 0 209 151q-90 86 -151 86q-70 0 -113 -44t-43 -95z" />
<glyph unicode="M" horiz-adv-x="1714" d="M49 1112q185 191 363.5 301.5t277.5 110.5q105 0 105 -119q0 -110 -93 -326l-47 -108q138 208 257.5 307.5t199.5 99.5q105 0 105 -118q0 -101 -93 -326l-96 -229q138 214 256 315.5t199 101.5q106 0 106 -127q0 -117 -82 -315l-168 -408q-108 -264 -126 -321 q-15 -50 -15 -78q0 -45 37 -45q10 0 27 7.5t50.5 35t71.5 70.5l31 -27q-67 -80 -115 -105.5t-92 -25.5q-61 0 -88.5 35.5t-27.5 89.5q0 44 18 108.5t35 108t50 121.5q7 17 11 26l174 408q125 285 125 364q0 43 -30 43q-4 0 -12.5 -1.5t-37 -14t-59.5 -33.5t-80.5 -68 t-101 -110.5t-119.5 -166.5t-137 -230l-193 -463h-129l391 934q6 15 19.5 47t20.5 48.5t19 45.5t18.5 46.5t15.5 42t14 41.5t10.5 35.5t7.5 33t2 26.5q0 43 -28 43q-4 0 -12.5 -1.5t-37 -13.5t-60 -34t-81.5 -69t-102 -111t-120.5 -169t-137.5 -234l-303 -711h-125l458 1079 q40 93 62 146.5t43.5 120t21.5 100.5q0 41 -28 41q-10 0 -28 -3t-78.5 -30t-126 -74t-167 -150t-204.5 -243z" />
<glyph unicode="N" horiz-adv-x="1310" d="M49 1130q187 192 360 302t273 110q106 0 106 -127q0 -118 -86 -317l-77 -185q96 139 181.5 237t156 150t127.5 74.5t110 22.5q109 0 109 -125q0 -115 -84 -318l-283 -663q-74 -175 -106.5 -264.5t-32.5 -135.5q0 -45 35 -45q19 0 57.5 25.5t91.5 87.5l33 -27 q-69 -79 -117 -105t-90 -26q-61 0 -89 36t-28 89q0 21 2.5 44.5t11 53t14 49.5t20.5 57.5t21 51.5t24.5 57.5t21.5 51.5l281 663q10 24 35.5 83t37.5 88.5t28 72.5t23 72.5t7 50.5q0 41 -29 41q-6 0 -17 -1.5t-48 -14.5t-76.5 -35.5t-100.5 -71.5t-122.5 -116t-139.5 -175.5 t-155 -242.5l-299 -705h-125l464 1098q119 280 119 362q0 47 -30 47q-9 0 -26.5 -3t-76 -29.5t-123 -73.5t-165 -150t-203.5 -243z" />
<glyph unicode="O" horiz-adv-x="1161" d="M14 358q0 172 64 355q33 96 78.5 183.5t91 150t92.5 115.5t87.5 87t72.5 58t50 35l19 10l19 -23q-8 -7 -23 -20.5t-59 -65.5t-86 -115.5t-96.5 -174t-98.5 -236.5q-75 -213 -75 -389q0 -134 49.5 -214.5t134.5 -80.5q64 0 142.5 48.5t155.5 129.5t151 192t130.5 230 t90.5 250.5t34 246.5q0 43 -4.5 82t-18 86t-44.5 75t-76 28q-86 0 -173 -99.5t-141.5 -249t-54.5 -290.5q0 -108 31 -160.5t102 -52.5q44 0 73 17t36 32l10 -27q-60 -90 -166 -90q-88 0 -137 72.5t-49 202.5q0 140 76 300.5t190.5 270t216.5 109.5q31 0 62 -11t63 -38.5 t57 -69t40.5 -109t15.5 -151.5q0 -135 -38 -273.5t-102 -256t-148.5 -221.5t-176.5 -176.5t-187.5 -114.5t-179.5 -42q-137 0 -219 106.5t-82 278.5z" />
<glyph unicode="P" horiz-adv-x="1081" d="M-100 0l180 426h-57q-16 0 -43.5 1t-38.5 1l57 96q43 -2 121 -2l188 449q91 217 245.5 341t326.5 124q43 0 85.5 -10.5t82 -33.5t69.5 -55.5t48 -79.5t18 -102q0 -162 -124 -311t-329 -262q-229 -127 -518 -150l-182 -432h-129zM248 524q303 14 475 105q102 54 178 149.5 t112 196.5t36 194q0 119 -55.5 174.5t-135.5 55.5q-33 0 -70.5 -12.5t-83.5 -44t-91 -78.5t-92.5 -123t-86.5 -170z" />
<glyph unicode="Q" horiz-adv-x="1179" d="M-33 -41q0 54 77 91.5t230 37.5h232q154 116 278.5 294.5t193.5 375.5t69 372q0 119 -52 194t-141 75q-124 0 -250.5 -84.5t-221.5 -215.5t-155.5 -298t-60.5 -324q0 -77 34.5 -125.5t80.5 -48.5q104 0 190 117l21 -21q-43 -67 -98 -108t-94.5 -52.5t-76.5 -11.5 q-93 0 -143.5 74t-50.5 174q0 118 34 238.5t92 225.5t138.5 197.5t171.5 158t192.5 103.5t198.5 38q41 0 80.5 -9.5t82 -35.5t74 -66.5t52 -109.5t20.5 -158q0 -272 -155 -535.5t-396 -433.5h277l-37 -88h-385q-203 -104 -397 -104q-105 0 -105 63zM16 -43q0 -25 66 -25 q136 0 278 68h-186q-64 0 -111 -13t-47 -30z" />
<glyph unicode="R" horiz-adv-x="1081" d="M-139 0l405 971q89 217 245 341t327 124q43 0 85.5 -10.5t82 -33.5t69.5 -55.5t48 -79.5t18 -102q0 -79 -27 -148.5t-70 -120.5t-107.5 -97.5t-127 -78t-141.5 -63.5q-43 -17 -100 -39q-46 -18 -58 -24t-12 -13q0 -1 1 -4.5t1 -5.5q7 -22 20 -60t57 -151.5t92.5 -221.5 t123 -247.5t151.5 -251.5l-135 -35q-227 360 -414 904q-10 35 -10 45q0 23 8 36t31.5 23.5t50.5 19t79.5 28t104.5 44.5q349 168 349 473q0 121 -55.5 176.5t-135.5 55.5q-43 0 -91 -20t-105 -65.5t-116.5 -133.5t-109.5 -209l-405 -971h-129z" />
<glyph unicode="S" horiz-adv-x="1069" d="M-80 260q0 207 230 371l77 -94q-109 -58 -173 -128.5t-64 -170.5q0 -85 76.5 -144t228.5 -59q76 0 147 21.5t129 61.5t92.5 104.5t34.5 144.5q0 59 -37 132t-90 143.5t-106 143t-90 153.5t-37 153q0 74 25 133.5t66 97.5t95.5 64t110 36.5t113.5 10.5q81 0 146.5 -26 t102 -58.5t72.5 -79.5l-98 -76q-61 112 -123 155.5t-137 43.5q-103 0 -179.5 -69.5t-76.5 -190.5q0 -50 28 -109.5t69.5 -113t90.5 -118t90.5 -124t69.5 -132t28 -141.5q0 -91 -45.5 -169.5t-121 -131t-173 -82.5t-202.5 -30q-165 0 -267 73t-102 205z" />
<glyph unicode="T" horiz-adv-x="1316" d="M49 981q0 125 101 229.5t272 164t373 59.5q150 0 329 -53t453 -197l-66 -119q-241 144 -460 211l-535 -1276h-129l551 1305q-148 36 -293 36q-146 0 -273 -46.5t-199.5 -120.5t-72.5 -154q0 -35 23.5 -55.5t66.5 -20.5h259l-31 -88h-254q-48 0 -81.5 33.5t-33.5 91.5z " />
<glyph unicode="U" horiz-adv-x="1398" d="M49 1022q185 191 363.5 301.5t277.5 110.5q55 0 83 -32t28 -87q0 -113 -92 -326l-242 -565q-105 -258 -105 -344q0 -45 44 -45q18 0 38.5 4t59.5 21t80 45t98 83t115 127.5t130 185.5t144 251l279 645h129l-506 -1188q-35 -80 -35 -127q0 -24 10.5 -35.5t24.5 -11.5 q60 0 113 59t179 246q7 10 11 16t10.5 15.5t11.5 17.5l27 -16q-138 -214 -191 -277q-84 -101 -166 -114q-15 -2 -30 -2t-30 3t-37 13t-36 35.5t-14 64.5q0 73 49 185l64 149q-165 -243 -304.5 -345.5t-250.5 -102.5q-62 0 -94.5 38t-32.5 99q0 110 84 305l239 565 q42 96 62.5 146.5t42.5 118.5t22 102q0 41 -28 41q-9 0 -27 -4t-78.5 -32.5t-125.5 -77t-166.5 -152.5t-204.5 -244z" />
<glyph unicode="V" horiz-adv-x="1259" d="M49 1022q178 192 345 302t265 110q64 0 98 -42t34 -110q0 -113 -62 -293l-147 -432q-42 -122 -68.5 -245t-26.5 -201q0 -37 10.5 -52.5t32.5 -15.5q61 0 163 95.5t211.5 259t182.5 339.5q3 7 9.5 22.5t9.5 22.5q-37 98 -37 211q0 129 34.5 195.5t82.5 66.5q21 0 37 -20.5 t16 -65.5q0 -150 -90 -393q19 -38 68 -98l-29 -27q-41 47 -58 78l-6 -14q-63 -155 -150 -295.5t-171.5 -234t-162.5 -148.5t-130 -55q-69 0 -104 56.5t-35 154.5q0 150 92 411l135 385q92 268 90 348q0 60 -37 60q-8 0 -18 -1t-41 -11t-63.5 -27t-84 -54.5t-104.5 -88.5 t-122.5 -133.5t-139.5 -184.5zM1112 952q0 -62 12 -112q62 184 62 260q0 41 -17 41q-23 0 -40 -58t-17 -131z" />
<glyph unicode="W" horiz-adv-x="1617" d="M49 1022q178 192 345 302t265 110q64 0 98 -42t34 -110q0 -113 -62 -293l-147 -432q-42 -122 -68.5 -245t-26.5 -201q0 -37 10.5 -52.5t32.5 -15.5q48 0 127.5 90t153.5 232q20 45 88 239l238 651h118l-247 -698q-95 -266 -95 -411v-9q0 -43 15 -68.5t41 -25.5 q59 0 141.5 99t164 251.5t161.5 343.5q9 22 16 45q-35 103 -35 211q0 129 34.5 195.5t82.5 66.5q21 0 37 -20.5t16 -65.5q0 -150 -90 -393q19 -38 68 -98l-29 -27q-39 44 -57 78l-6 -14q-134 -328 -278 -530.5t-249 -202.5q-67 0 -99 55t-32 153q0 50 6 109 q-180 -317 -311 -317q-69 0 -104 56.5t-35 154.5q0 150 92 411l135 385q92 268 90 348q0 60 -37 60q-8 0 -18 -1t-41 -11t-63.5 -27t-84 -54.5t-104.5 -88.5t-122.5 -133.5t-139.5 -184.5zM1460 952q0 -58 13 -112q61 181 61 260q0 41 -16 41q-23 0 -40.5 -58t-17.5 -131z " />
<glyph unicode="X" horiz-adv-x="1259" d="M-39 -23l19 142q15 -5 33 -5q35 0 81 20q68 30 114 67l46 37q133 125 367 415l-7 391q-3 206 -12.5 279.5t-44.5 73.5q-18 0 -36.5 -4.5t-61.5 -29.5t-88 -68.5t-113.5 -133t-140.5 -211.5l-21 148q290 332 486 336h7q85 0 118 -72q34 -74 36 -250l5 -301 q286 358 387 457q5 5 14 12.5t36 26.5t55 34t66.5 27t73.5 12h19l-60 -120q-56 -2 -120 -33.5t-100 -62.5l-36 -31q-13 -13 -37 -40t-59 -69.5t-68 -83.5t-83.5 -103.5t-87.5 -107.5l6 -547q2 -64 14 -90t45 -26q21 0 42.5 10.5t46 35t35.5 36.5t36 42l28 -26 q-87 -107 -139.5 -144.5t-107.5 -37.5q-67 0 -95 51.5t-30 150.5l-6 391q-217 -265 -310 -368q-64 -76 -108 -114q-119 -103 -244 -116z" />
<glyph unicode="Y" horiz-adv-x="1343" d="M49 1022q185 191 363.5 301.5t277.5 110.5q55 0 83 -32t28 -87q0 -113 -92 -326l-242 -565q-105 -258 -105 -344q0 -45 44 -45q18 0 38.5 4t59 20.5t79 44.5t97 81.5t114.5 125.5t129.5 183t143.5 247l219 514h129l-414 -974q-41 -97 -63.5 -149t-70.5 -145.5t-95 -164.5 h135l-41 -88h-155q-209 -264 -469 -264q-83 0 -123.5 36.5t-40.5 96.5q0 19 6.5 41.5t30.5 55.5t63 59t113.5 44.5t171.5 18.5h178q107 169 229 459l64 147q-304 -446 -555 -446q-62 0 -94.5 38t-32.5 99q0 110 84 305l239 565q42 96 62.5 146.5t42.5 118.5t22 102 q0 41 -28 41q-9 0 -27 -4t-78.5 -32.5t-125.5 -77t-166.5 -152.5t-204.5 -244zM121 -406q0 -83 121 -83q87 0 169.5 48.5t172.5 174.5h-162q-55 0 -102.5 -6t-95 -20t-75.5 -43t-28 -71z" />
<glyph unicode="Z" horiz-adv-x="1269" d="M-201 68q0 46 43 75t119 29q69 0 205 -25q118 95 263.5 256t272 326.5t228.5 313.5t157 245q-137 0 -332 30t-300 30q-59 0 -101.5 -17.5t-62 -44.5t-27.5 -50t-8 -44q0 -57 43.5 -96t116.5 -39q75 0 147 28l-41 -96q-50 -16 -102 -16q-92 0 -153.5 49.5t-61.5 140.5 q0 88 58.5 151t144.5 91.5t184 28.5q72 0 275 -24t393 -24q-56 -145 -224 -382.5t-389.5 -480.5t-410.5 -388q105 -20 163.5 -30.5t163.5 -21.5t199 -11q72 0 122.5 13.5t73.5 36t32 42.5t9 41q0 37 -29 63.5t-71 36.5l86 82q64 -51 64 -141q0 -88 -58 -151t-143.5 -91.5 t-183.5 -28.5q-94 0 -200.5 17.5t-165 33t-157.5 44.5q-141 -88 -225 -88q-58 0 -87.5 25t-29.5 61zM-154 72q0 -20 17.5 -33.5t54.5 -13.5q69 0 164 61q-105 31 -154 31q-42 0 -62 -13.5t-20 -31.5z" />
<glyph unicode="[" horiz-adv-x="657" d="M-133 -106l678 1630h252l-21 -49h-139l-639 -1532h139l-18 -49h-252z" />
<glyph unicode="\" horiz-adv-x="526" d="M150 1434h71l156 -1434h-74z" />
<glyph unicode="]" horiz-adv-x="657" d="M-109 -106l21 49h139l643 1532h-141l20 49h252l-682 -1630h-252z" />
<glyph unicode="^" horiz-adv-x="749" d="M188 983l357 414h108l33 -414h-111l-8 332l-262 -332h-117z" />
<glyph unicode="_" horiz-adv-x="512" d="M-219 -254l39 86h479l-39 -86h-479z" />
<glyph unicode="`" horiz-adv-x="499" d="M217 1038h125l-2 -194h-33z" />
<glyph unicode="a" horiz-adv-x="700" d="M-205 113q0 76 52 177.5t132.5 193.5t190.5 160.5t215 78.5v-18q-69 -21 -138 -71t-121.5 -112t-93.5 -129t-63 -127t-22 -100q0 -43 20 -43q29 0 129 119.5t211 269.5q106 143 129 166q35 37 70 37q37 0 37 -37q0 -23 -13 -53q-7 -14 -90 -221t-96 -234q-10 -30 -10 -37 q0 -18 20 -18q33 0 76 55l182 225l27 -20l-221 -273q-48 -58 -84 -80t-76 -22q-31 0 -50.5 16.5t-19.5 44.5q0 44 45 142q27 60 71 167.5t44 114.5q0 11 -6 11q-9 0 -18 -15q-6 -8 -65 -91t-124 -170t-98 -120q-52 -52 -89 -77t-71 -25q-32 0 -57 26t-25 89z" />
<glyph unicode="b" horiz-adv-x="798" d="M-123 352q68 83 120.5 152.5t83.5 112.5t61.5 93.5t41.5 71t36 70.5l34 68l125 299h121l-414 -979q-4 -12 -4 -17q0 -10 6 -10q10 0 21 14q36 55 139.5 199.5t150.5 191.5q43 41 62 58t47 33t51 16q31 0 57.5 -29t26.5 -92q0 -132 -116 -287t-271 -245q272 86 453 319 l24 -20q-52 -65 -109.5 -118t-106 -88.5t-108 -64t-98.5 -43.5t-97 -28t-83.5 -17.5t-75.5 -11.5v18q95 35 180.5 105.5t139.5 148.5t85.5 153t31.5 126q0 47 -23 47q-16 0 -53.5 -37.5t-95.5 -110.5t-96 -124t-99 -133q-98 -132 -131.5 -167.5t-69.5 -35.5q-37 0 -37 37 q0 23 13 53l235 561q-82 -126 -233 -309z" />
<glyph unicode="c" horiz-adv-x="585" d="M-150 180q0 92 40.5 179t101.5 150.5t131.5 112t133 73t103.5 24.5q40 0 70.5 -25.5t30.5 -75.5q0 -20 -2 -32q-9 -38 -73 -76.5t-105 -38.5q36 45 57.5 91t21.5 77q0 41 -34 41q-61 0 -148 -100t-150 -231.5t-63 -217.5q0 -90 84 -90q164 0 438 342l25 -18 q-79 -101 -149.5 -173.5t-117 -108.5t-92 -56t-68 -23.5t-50.5 -3.5q-13 0 -30 2t-46.5 12.5t-52 28.5t-39.5 53.5t-17 83.5z" />
<glyph unicode="d" horiz-adv-x="700" d="M-205 115q0 83 54.5 186.5t137.5 192t191 154t207 75.5v-18q-89 -29 -173 -99.5t-140.5 -151t-90.5 -159t-34 -129.5q0 -43 20 -43q29 0 129 119.5t211 269.5q53 71 99.5 147t67.5 116l20 40l170 404h120l-440 -1049q-10 -30 -10 -37q0 -18 20 -18q33 0 76 55l182 225 l27 -20l-221 -273q-48 -58 -84 -80t-76 -22q-31 0 -50.5 16.5t-19.5 44.5q0 44 45 142q103 241 111 262q4 6 4 16q0 11 -6 11t-18 -15q-25 -33 -79.5 -109t-95.5 -130.5t-92.5 -114.5t-97 -92.5t-82.5 -32.5q-32 0 -57 27t-25 90z" />
<glyph unicode="e" horiz-adv-x="573" d="M-150 166q0 106 52.5 211.5t127 178t154 118t135.5 45.5q51 0 76 -30.5t25 -82.5q0 -84 -71.5 -164.5t-170 -126.5t-184.5 -47q-29 -79 -29 -135q0 -92 72 -92q164 0 438 342l27 -18q-79 -101 -151 -173.5t-119.5 -108.5t-94 -56t-68.5 -23.5t-49 -3.5t-53.5 7.5 t-54.5 24.5t-45 51.5t-17 82.5zM2 297q90 15 165 73.5t113.5 129.5t38.5 133q0 45 -32 45q-53 0 -142 -121.5t-143 -259.5z" />
<glyph unicode="f" horiz-adv-x="499" d="M-346 -518l481 1161q-87 -133 -233 -311l-25 20q116 143 194.5 256t104.5 160.5t70 136.5q136 332 289 332q38 0 62 -28t24 -70q0 -72 -34.5 -151.5t-98.5 -159.5t-127 -146t-148 -143l-231 -564q216 159 421 410l25 -20q-59 -76 -113 -135.5t-121.5 -121t-108 -95.5 t-134.5 -111l-156 -375zM248 618q159 155 245.5 283t86.5 238q0 55 -33 55t-68 -51t-78 -152z" />
<glyph unicode="g" horiz-adv-x="698" d="M-266 -440q0 42 18 83.5t44 73.5t71.5 71t83.5 66t98 70t98 72l195 473q6 12 6 16q0 11 -6 11q-9 0 -18 -15q-6 -8 -65 -91t-124 -170t-98 -120q-52 -52 -89 -77t-71 -25q-32 0 -57 26t-25 89q0 76 52 177.5t132.5 193.5t190.5 160.5t215 78.5v-18q-69 -21 -138 -71 t-121.5 -112t-93.5 -129t-63 -127t-22 -100q0 -43 20 -43q29 0 129 119.5t211 269.5q107 143 133 170q34 33 68 33q37 0 37 -37q0 -23 -13 -53l-233 -555q153 129 305 315l27 -20q-89 -112 -171.5 -194t-189.5 -171l-96 -231q-70 -167 -142.5 -249.5t-172.5 -82.5 q-63 0 -94 37.5t-31 85.5zM-227 -442q0 -33 17.5 -57.5t53.5 -24.5q48 0 89.5 52.5t82.5 152.5l107 253q-22 -16 -68 -48t-64 -45.5t-53.5 -40t-50 -40t-38.5 -37t-34 -39.5t-22 -38t-16 -43t-4 -45z" />
<glyph unicode="h" horiz-adv-x="763" d="M-123 352q66 80 119 151t84.5 116.5t64 99.5t44.5 77.5t38 75t35 68.5l117 279h121l-410 -971q-4 -17 -4 -23q0 -10 6 -10q13 0 25 21l209 311q67 98 107.5 137t82.5 39q80 0 80 -59q0 -32 -16 -68l-174 -426q-11 -33 -11 -37q0 -18 21 -18q33 0 76 55l184 225l24 -20 l-221 -273q-48 -58 -83.5 -80t-76.5 -22q-30 0 -49.5 17t-19.5 44q0 40 45 142l162 383q4 12 4 14q0 9 -6 15t-15 6q-19 0 -37 -25l-329 -490q-69 -106 -125 -106q-47 0 -47 43q0 39 43 139l196 469q-85 -130 -239 -319z" />
<glyph unicode="i" horiz-adv-x="440" d="M-117 358l226 279q32 39 58 60.5t54 21.5q27 0 41 -15t14 -36q0 -33 -24 -93l-168 -405q-10 -30 -10 -37q0 -18 20 -18q33 0 76 55l182 225l27 -20l-221 -273q-48 -58 -84 -80t-76 -22q-31 0 -50.5 16.5t-19.5 44.5q0 40 45 142l160 370q2 4 2 11q0 12 -10 12t-19 -12 l-198 -244zM289 1024q0 39 25.5 64.5t56.5 25.5q28 0 45.5 -21t17.5 -51q0 -35 -22.5 -63.5t-57.5 -28.5q-28 0 -46.5 22.5t-18.5 51.5z" />
<glyph unicode="j" horiz-adv-x="436" d="M-356 -518q469 1042 489 1091q2 4 2 11q0 12 -10 12t-19 -12l-198 -244l-25 18l226 279q32 39 58 60.5t54 21.5q27 0 41 -15t14 -36q0 -33 -24 -93l-223 -514q169 146 313 324l27 -20q-90 -114 -173 -195.5t-198 -179.5l-203 -467zM289 1024q0 39 25.5 64.5t56.5 25.5 q28 0 45.5 -21t17.5 -51q0 -35 -22.5 -63.5t-57.5 -28.5q-28 0 -46.5 22.5t-18.5 51.5z" />
<glyph unicode="k" horiz-adv-x="774" d="M-123 352q49 60 91 115t71.5 94.5t58 84t43.5 67.5t36.5 63t28.5 53t27 54.5t25 50.5l121 285h121l-408 -971q-4 -8 -4 -19q0 -14 8 -14q10 0 25 21l235 364q80 123 156 123q38 0 65 -25t27 -84q0 -46 -23 -85.5t-57.5 -66.5t-75 -57.5t-75 -58.5t-57.5 -69.5t-23 -90.5 q0 -46 23 -71t61 -25q64 0 127 80l182 225l27 -20l-221 -273q-47 -57 -87.5 -79.5t-87.5 -22.5q-46 0 -82 38.5t-36 96.5q0 39 15 76.5t46 75t56 62t67 61.5q109 92 109 196q0 15 -8.5 26t-20.5 11q-16 0 -32.5 -14.5t-27.5 -32.5l-325 -487q-42 -60 -70.5 -84.5 t-62.5 -24.5q-41 0 -41 43q0 42 43 139l194 469q-85 -130 -239 -319z" />
<glyph unicode="l" horiz-adv-x="415" d="M-123 352q80 98 138 175t100 144.5t59.5 97t51 98t40.5 81.5l115 271h119l-443 -1049q-10 -30 -10 -37q0 -18 21 -18q32 0 75 55l185 225l24 -20l-221 -273q-49 -60 -80.5 -81t-70.5 -21q-31 0 -50.5 16.5t-19.5 44.5q0 40 45 142l188 450q-85 -130 -241 -321z" />
<glyph unicode="m" horiz-adv-x="1095" d="M-117 358l226 279q32 39 58 60.5t54 21.5q27 0 41 -15t14 -36q0 -33 -24 -93l-139 -327q-7 -14 -7 -23q0 -10 9 -10t24 21l219 335q56 87 93 117.5t92 30.5q28 0 43.5 -15.5t15.5 -35.5q0 -40 -24 -93l-140 -327q-6 -12 -6 -23q0 -10 8 -10q13 0 25 21l192 311 q61 97 105 136.5t88 39.5q78 0 78 -59q0 -30 -17 -68l-174 -426q-10 -30 -10 -37q0 -18 21 -18q32 0 75 55l185 225l24 -20l-221 -273q-48 -58 -83.5 -80t-76.5 -22q-30 0 -49.5 17t-19.5 44q0 40 45 142l161 383q1 2 2 5t2 5t1 4q0 9 -6.5 15t-14.5 6q-18 0 -37 -25 l-313 -490q-69 -106 -125 -106q-47 0 -47 43q0 39 43 139l176 416q4 8 4 10q0 8 -5 12.5t-11 4.5q-19 0 -37 -29l-324 -490q-72 -106 -127 -106q-45 0 -45 43q0 39 43 139l166 391q2 4 2 11q0 12 -10 12t-19 -12l-198 -244z" />
<glyph unicode="n" horiz-adv-x="786" d="M-117 358l226 279q32 39 58 60.5t54 21.5q27 0 41 -15t14 -36q0 -33 -24 -93l-139 -327q-7 -14 -7 -23q0 -10 9 -10t24 21l209 311q65 98 106.5 137t84.5 39q77 0 77 -59q0 -26 -14 -68l-174 -426q-10 -30 -10 -37q0 -18 20 -18q33 0 76 55l182 225l27 -20l-221 -273 q-48 -58 -84 -80t-76 -22q-31 0 -50.5 16.5t-19.5 44.5q0 40 45 142l162 383q2 6 2 14q0 9 -5 15t-13 6q-22 0 -37 -25l-330 -490q-72 -106 -127 -106q-45 0 -45 43q0 39 43 139l166 391q2 4 2 11q0 12 -10 12t-19 -12l-198 -244z" />
<glyph unicode="o" horiz-adv-x="667" d="M-139 203q0 164 109.5 309t285.5 211l8 -14q-144 -125 -219.5 -285t-75.5 -291q0 -39 18 -67.5t50 -28.5q82 0 215 190q-90 48 -90 181q0 104 66.5 191t136.5 87q46 0 83 -39.5t37 -126.5q0 -128 -86 -274q38 8 77 39t93 98l25 -21q-61 -79 -112.5 -113.5t-106.5 -39.5 q-63 -94 -147.5 -152.5t-172.5 -58.5q-80 0 -137 53.5t-57 151.5zM199 412q0 -114 71 -156q56 91 91.5 183t35.5 155q0 29 -15 40t-34 11q-42 0 -95.5 -74.5t-53.5 -158.5z" />
<glyph unicode="p" horiz-adv-x="798" d="M-354 -518q36 81 89 204t87 206l35 83l278 666q-90 -134 -235 -311l-25 18q118 146 188.5 243t95 139t60.5 112l21 47h120l-258 -617q-4 -8 -4 -16q0 -10 6 -10q7 0 19 12q2 3 41.5 58t77.5 107t83.5 110.5t71.5 84.5q43 41 62 58t47 33t51 16q31 0 57.5 -29t26.5 -92 q0 -131 -115.5 -286t-269.5 -246q271 87 451 319l24 -20q-52 -65 -109.5 -118t-106 -88.5t-108 -64t-98.5 -43.5t-97 -28t-83.5 -17.5t-75.5 -11.5v18q95 35 180 105.5t139 148.5t85.5 153t31.5 126q0 47 -22 47q-37 0 -150 -140.5t-222.5 -308.5t-151.5 -258 q-30 -65 -89.5 -207t-66.5 -157z" />
<glyph unicode="q" horiz-adv-x="700" d="M-205 113q0 76 52 177.5t132.5 193.5t190.5 160.5t215 78.5v-18q-69 -21 -138 -71t-121.5 -112t-93.5 -129t-63 -127t-22 -100q0 -43 20 -43q29 0 129 119.5t211 269.5q107 143 133 170q34 33 68 33q37 0 37 -37q0 -23 -13 -53l-229 -553q165 146 301 313l27 -20 q-81 -102 -157 -178.5t-171 -159.5q-1 -50 -8 -116t-24.5 -152t-42.5 -155.5t-67 -118t-93 -48.5q-88 0 -88 94q0 55 36 147l326 791q6 12 6 16q0 11 -6 11q-9 0 -18 -15q-6 -8 -65 -91t-124 -170t-98 -120q-52 -52 -89 -77t-71 -25q-32 0 -57 26t-25 89zM78 -496 q0 -20 18 -20q40 0 79 87t62.5 199.5t30.5 215.5l-172 -416q-18 -45 -18 -66z" />
<glyph unicode="r" horiz-adv-x="501" d="M-123 352q156 199 225 297q-53 21 -53 74q0 32 28.5 74.5t72.5 42.5q22 0 38.5 -12t16.5 -35q0 -46 -55 -109q20 -8 57 -8q13 0 34 1t29 1q26 0 39 -13t13 -32q0 -27 -25 -94l-156 -369q-10 -30 -10 -37q0 -18 21 -18q32 0 75 55l185 225l24 -20l-221 -273 q-48 -59 -82.5 -80.5t-73.5 -21.5q-31 0 -49 16.5t-18 44.5q0 40 45 142l139 334q29 64 29 86q0 10 -12 10q-28 0 -58 6q-65 -95 -233 -307z" />
<glyph unicode="s" horiz-adv-x="512" d="M-186 43q0 31 42 77t74 46q18 0 23 -12.5t2 -27.5t-1 -27.5t15 -12.5q53 0 99.5 60.5t72 149t25.5 177.5q0 86 -37 158q-58 -86 -227 -299l-25 20q171 217 236 310q-13 23 -13 40q0 46 46 92t92 46q41 0 41 -35q0 -9 -23 -44t-23 -44q0 -6 10.5 -36t20.5 -79.5t10 -101.5 q0 -109 -50 -216t-130 -184q172 95 328 291l24 -20q-116 -146 -245.5 -237t-251.5 -124q-42 -10 -68 -10q-67 0 -67 43z" />
<glyph unicode="t" horiz-adv-x="444" d="M-123 352q116 142 193.5 253.5t104 160t69.5 135.5h-244l18 41h246l78 188h121l-80 -188h285l-21 -41h-280l-310 -731q-12 -36 -12 -45q0 -12 8 -20.5t21 -8.5q20 0 48 22t52 52l182 225l27 -20l-213 -260q-91 -115 -174 -115q-34 0 -59 18.5t-25 51.5q0 35 43 133 l188 450q-85 -130 -241 -321z" />
<glyph unicode="u" horiz-adv-x="798" d="M-117 358l226 279q32 39 58 60.5t54 21.5q27 0 41 -15t14 -36q0 -33 -24 -93l-150 -356q-24 -57 -24 -92t37 -35q26 0 72 68.5t115 195t101 176.5q78 124 100 149q42 40 91 42q20 0 32.5 -11t12.5 -28q0 -28 -10 -51q-7 -14 -91.5 -225t-97.5 -238q-10 -20 -10 -37 q0 -18 21 -18q32 0 75 55l183 225l24 -20l-221 -273q-45 -58 -81.5 -80t-76.5 -22q-31 0 -50 16.5t-19 44.5q0 51 45 142q26 58 70 166.5t44 115.5q0 11 -6 11q-9 0 -18 -15q-41 -63 -89 -147.5t-78 -135.5t-66 -101t-73 -73.5t-79 -23.5q-35 0 -57.5 24.5t-22.5 67.5 q0 63 29 121l149 360q2 4 2 11q0 12 -10 12t-19 -12l-198 -244z" />
<glyph unicode="v" horiz-adv-x="778" d="M-117 358l226 279q32 39 58 60.5t54 21.5q27 0 41 -15t14 -36q0 -33 -24 -93l-154 -382q-32 -80 -32 -113q0 -15 8.5 -25t21.5 -10q33 0 98.5 62t137.5 157q-33 46 -33 135q0 78 35 154t89 123t107 47q84 0 84 -100q0 -79 -52.5 -180t-137.5 -199q12 -4 27 -4 q61 0 110 27.5t119 115.5l25 -21q-68 -89 -126.5 -122t-127.5 -33q-30 0 -54 6q-90 -96 -183.5 -157.5t-158.5 -61.5q-42 0 -66 27t-24 79q0 70 49 187l119 286q2 4 2 11q0 12 -10 12t-19 -12l-198 -244zM338 401q0 -67 18 -102q74 102 122 196t48 148q0 37 -22 37 q-26 0 -64.5 -36.5t-70 -104t-31.5 -138.5z" />
<glyph unicode="w" horiz-adv-x="1099" d="M-125 358l225 279q67 82 113 82q28 0 41.5 -15t13.5 -36q0 -33 -24 -93l-154 -382q-33 -83 -33 -113q0 -15 9 -25t22 -10q33 0 102 66t142 163q0 5 4 13l147 354h117l-180 -448q-33 -83 -33 -113q0 -15 9 -25t22 -10q31 0 93.5 59t129.5 148q-31 54 -31 137 q0 78 37.5 156.5t95 128t111.5 49.5q39 0 61.5 -25t22.5 -75q0 -83 -58.5 -190.5t-150.5 -209.5q20 -4 33 -4q57 0 110.5 34.5t128.5 127.5l23 -21q-70 -93 -132.5 -133.5t-127.5 -40.5q-30 0 -59 11q-89 -91 -177 -147t-151 -56q-41 0 -64.5 27.5t-23.5 78.5q0 28 6 62 q-152 -168 -248 -168q-41 0 -65.5 27.5t-24.5 78.5q0 70 49 187l119 286q2 4 2 11q0 12 -10 12t-19 -12l-198 -244zM649 391q0 -60 19 -106q78 107 130 205t52 153q0 37 -25 37q-19 0 -48.5 -24t-58 -61.5t-49 -93t-20.5 -110.5z" />
<glyph unicode="x" horiz-adv-x="681" d="M-162 0v96q9 -4 27 -4q20 0 45 7.5t62.5 27t86.5 64t101 108.5l-27 276q0 15 -12 15t-23 -15l-190 -235l-25 18l226 279q5 6 16.5 20.5t16 20t14.5 16t17 14.5t16.5 7.5t19.5 3.5q47 0 47 -51l20 -213q80 106 132.5 159t80 66.5t68.5 19.5l10 -118q-9 8 -32 8 q-99 0 -254 -184l24 -263q3 -28 27 -28q13 0 34.5 14.5t41.5 40.5l184 225l24 -20l-221 -273q-51 -62 -78.5 -82t-64.5 -20q-31 0 -50 16t-20 45l-18 193q-58 -73 -107 -123.5t-79 -75.5t-60 -38t-43.5 -15t-36.5 -2z" />
<glyph unicode="y" horiz-adv-x="790" d="M-117 358l226 279q32 39 58 60.5t54 21.5q27 0 41 -15t14 -36q0 -33 -24 -93l-150 -356q-24 -57 -24 -92t37 -35q26 0 72 68.5t115 195t101 176.5q78 124 100 149q42 40 91 42q20 0 32.5 -11t12.5 -28q0 -28 -10 -51l-248 -574q161 139 315 326l25 -20 q-90 -114 -173 -195.5t-198 -179.5l-203 -467l-149 -41q426 946 444 995q4 5 3.5 12t-7.5 7q-9 0 -18 -15q-41 -63 -89 -147.5t-78 -135.5t-66 -101t-73 -73.5t-79 -23.5q-35 0 -57.5 24.5t-22.5 67.5q0 63 29 121l149 360q2 4 2 11q0 12 -10 12t-19 -12l-198 -244z" />
<glyph unicode="z" horiz-adv-x="571" d="M-240 -469q0 129 265 379q4 46 4 65q0 53 -17 86q-54 -26 -98 -26q-47 0 -47 37q0 26 30.5 48.5t84.5 22.5q27 0 59 -12q80 83 146.5 216t66.5 200q0 69 -55 69q-71 0 -164 -120q-78 -99 -127 -156l-25 18l123 154q84 105 163.5 160t139.5 55q40 0 70.5 -29t30.5 -94 q0 -105 -102.5 -257.5t-227.5 -242.5q30 -30 43 -75q183 149 352 356l27 -20q-96 -120 -176 -198.5t-197 -176.5v-19q0 -105 -53.5 -224.5t-126.5 -197t-129 -77.5q-25 0 -42.5 14t-17.5 45zM-205 -467q0 -31 23 -31q39 2 102.5 112t91.5 236q-74 -69 -145.5 -165 t-71.5 -152zM-109 76q0 -7 6.5 -13t16.5 -6q30 0 80 31q-19 16 -47 16t-42 -9t-14 -19z" />
<glyph unicode="{" horiz-adv-x="647" d="M-10 121q0 66 32.5 138.5t71 124.5t71 112.5t32.5 105.5q0 28 -11.5 59.5t-35.5 43.5l6 20q51 13 108 66.5t80 109.5q13 32 37 154t45 170q22 55 68.5 106.5t97 85t97.5 59.5t77 38l31 12l10 -31q-9 -4 -24.5 -12t-58 -35t-78.5 -57t-75 -77.5t-59 -96.5 q-22 -55 -36 -172.5t-32 -161.5q-22 -51 -70 -103t-108 -75q39 -31 39 -93q0 -48 -24 -99.5t-58.5 -98t-69.5 -94.5t-59 -105t-24 -113q0 -33 7.5 -64.5t18 -52.5t20.5 -38t18 -25l7 -8l-18 -20q-1 0 -14.5 10.5t-33.5 32t-39 48t-32.5 63t-13.5 73.5z" />
<glyph unicode="|" horiz-adv-x="499" d="M211 -328v1762h80v-1762h-80z" />
<glyph unicode="}" horiz-adv-x="647" d="M-152 -76q9 4 24.5 12t58 35.5t78.5 57.5t75 77.5t59 96.5q22 54 36.5 171.5t33.5 162.5q20 50 68 102.5t108 75.5q-39 31 -39 92q0 48 24.5 99.5t59 98t69 94.5t59 105t24.5 113q0 52 -18 98.5t-36 66.5l-18 21l21 23q5 -4 14 -11.5t32 -31t40.5 -48.5t32 -62.5 t14.5 -74.5q0 -54 -21.5 -111.5t-52 -104.5t-61.5 -92t-52.5 -90.5t-21.5 -82.5q0 -28 11.5 -59t35.5 -43l-4 -23q-52 -12 -110 -65.5t-81 -110.5q-14 -33 -37.5 -153.5t-42.5 -167.5q-23 -55 -69.5 -106.5t-96.5 -85t-97 -59.5t-77 -38l-30 -12z" />
<glyph unicode="~" d="M37 485q51 108 99 156.5t104 48.5q36 0 66.5 -20.5t48.5 -45t42.5 -45t48.5 -20.5q33 0 65 28t69 103h79q-55 -110 -104.5 -157.5t-112.5 -47.5q-38 0 -70 20.5t-50 45t-41 45t-43 20.5q-30 0 -58.5 -29.5t-62.5 -101.5h-80z" />
<glyph unicode="&#xa1;" horiz-adv-x="444" d="M-371 -518l596 1198h27l-481 -1198h-142zM215 813q0 29 21.5 50.5t50.5 21.5t49 -21t20 -51q0 -29 -20 -49.5t-49 -20.5t-50.5 20.5t-21.5 49.5z" />
<glyph unicode="&#xa2;" horiz-adv-x="550" d="M-41 395q0 72 28 141t71.5 121.5t98 97t106 72t97.5 41.5l95 226l37 -17l-84 -198h10q37 0 63.5 -22.5t26.5 -68.5q0 -18 -2 -28q-7 -33 -65 -68t-95 -35q74 95 74 146q0 34 -29 37l-237 -566q89 6 213 125l24 -22q-61 -60 -114.5 -93.5t-82 -41.5t-59.5 -9l-96 -233 l-39 14l94 224q-23 4 -43.5 12t-42.5 25t-35.5 48t-13.5 72zM63 356q0 -67 48 -80l231 549q-88 -46 -183.5 -205.5t-95.5 -263.5z" />
<glyph unicode="&#xa3;" horiz-adv-x="942" d="M-180 109q0 67 54 117t132 50q68 0 146 -57q56 111 120 330h-182l25 51h174q3 12 9 32.5t10.5 36t8.5 29.5q37 130 81.5 227t86.5 152t90 88t86.5 43.5t81.5 10.5q82 0 129.5 -43.5t47.5 -108.5q0 -59 -42 -108.5t-106 -73.5l-35 98q49 2 86 27.5t37 72.5q0 40 -30 67.5 t-91 27.5q-114 0 -202 -202q-36 -83 -101 -304q-4 -12 -11 -35.5t-11 -36.5h286l-22 -51h-281q-84 -244 -178 -379q58 -42 110.5 -65t114.5 -23q42 0 70 4t56.5 17.5t49.5 41t37 70.5l41 -10q-72 -219 -270 -219q-75 0 -134 31.5t-122 88.5q-103 -118 -221 -118 q-51 0 -91 31.5t-40 89.5zM-133 113q0 -35 22 -57.5t56 -22.5q91 0 172 125q-76 65 -125 65q-59 0 -92 -33.5t-33 -76.5z" />
<glyph unicode="&#xa4;" d="M33 373l110 108q-53 70 -53 154t53 156q-35 33 -110 108l51 51l111 -108q76 51 155 51q85 0 154 -49l43 43q7 7 20 20.5t23.5 24t19.5 18.5q10 -10 27 -25.5t27 -25.5l-109 -108q49 -70 49 -156q0 -89 -49 -156q57 -57 109 -106l-54 -54l-108 109q-74 -49 -156 -49 t-151 49l-109 -109q-45 45 -53 54zM162 635q0 -83 53 -133q51 -51 131 -51q76 0 133.5 49.5t57.5 134.5q0 75 -56.5 130.5t-134.5 55.5q-76 0 -130 -56t-54 -130z" />
<glyph unicode="&#xa5;" horiz-adv-x="1112" d="M-70 -365l72 72q8 -24 13.5 -36.5t19 -34t34.5 -32t48 -10.5q34 0 68.5 14t78.5 50t97 109t110 180h-303l22 51h308q25 49 43 88h-318l25 51h317q5 11 20 45t23 54l140 331q-233 -327 -431 -327q-53 0 -80.5 31t-27.5 81q0 95 72 258l94 221q9 21 29 68t30 71.5t23 58.5 t18.5 58t5.5 41q0 33 -35 33q-13 0 -29.5 -4t-51.5 -21.5t-75 -47t-100.5 -87t-126.5 -135.5l-20 99q127 113 243 176t185 63q47 0 75.5 -27.5t28.5 -70.5q0 -102 -75 -275l-97 -221q-88 -212 -88 -291q0 -26 29 -26q11 0 27.5 4.5t47.5 19.5t65 40t81 71.5t95.5 107 t108 153t118.5 204.5l139 326h123l-418 -983q-12 -32 -43 -99h146l-23 -51h-145q-7 -16 -21.5 -46.5t-19.5 -41.5h151l-22 -51h-156q-45 -82 -93.5 -147t-110.5 -123t-138.5 -89.5t-161.5 -31.5q-110 0 -164 79z" />
<glyph unicode="&#xa6;" d="M211 -328v658h80v-658h-80zM211 778v656h80v-656h-80z" />
<glyph unicode="&#xa7;" d="M-74 88l84 70q46 -86 90.5 -125t98.5 -39q77 0 129.5 48t52.5 140q0 45 -28.5 96.5t-68.5 101t-80.5 101t-69 114.5t-28.5 124q0 101 61.5 171t151.5 95q-43 75 -43 143q0 69 26 123t68.5 85.5t92 47t102.5 15.5q87 0 153.5 -40t108.5 -95l-84 -68q-46 86 -90 125t-96 39 q-77 0 -129.5 -49.5t-52.5 -141.5q0 -45 28 -96t68 -100t80 -100.5t68 -114t28 -123.5q0 -102 -60 -171.5t-151 -96.5q43 -77 43 -142q0 -69 -26 -123t-69 -85t-93 -46.5t-103 -15.5q-156 0 -262 133zM207 752q0 -51 30.5 -106t92.5 -132t84 -111q58 20 96.5 72.5 t38.5 124.5q0 51 -31 106t-92 131.5t-84 112.5q-59 -20 -97 -72.5t-38 -125.5z" />
<glyph unicode="&#xa8;" horiz-adv-x="499" d="M121 938q0 32 21 54t51 22q31 0 52 -22t21 -54q0 -30 -21 -51t-52 -21q-29 0 -50.5 21.5t-21.5 50.5zM334 938q0 32 21.5 54t52.5 22q29 0 50 -22t21 -54q0 -29 -21 -50.5t-50 -21.5q-31 0 -52.5 21.5t-21.5 50.5z" />
<glyph unicode="&#xa9;" horiz-adv-x="1536" d="M90 565q0 153 64 294.5t169 243t244.5 162t286.5 60.5q123 0 230.5 -44t183 -119.5t119 -181t43.5 -224.5q0 -152 -65.5 -293t-172 -241.5t-247.5 -161t-286 -60.5q-248 0 -408.5 162t-160.5 403zM170 573q0 -142 59.5 -255t174.5 -179.5t268 -66.5q128 0 252.5 57 t217.5 149t150.5 215.5t57.5 249.5q0 144 -60.5 259t-177 183t-270.5 68q-130 0 -254 -58t-215 -152t-147 -218.5t-56 -251.5zM358 455q0 129 55.5 258.5t138.5 222.5t180.5 151t180.5 58q90 0 144.5 -47t54.5 -123q0 -85 -68.5 -169.5t-156.5 -115.5l-17 29 q71 36 110.5 106t39.5 156q0 58 -26.5 93.5t-69.5 35.5q-77 0 -158 -64.5t-142 -161t-100 -212t-39 -213.5q0 -96 35.5 -148.5t100.5 -52.5q115 0 213 88l20 -27q-50 -48 -110.5 -75t-89.5 -31t-54 -4q-42 0 -81.5 12t-77 38t-60.5 76.5t-23 119.5z" />
<glyph unicode="&#xaa;" horiz-adv-x="512" d="M-10 598l24 49h416l-24 -49h-416zM33 811q0 51 38 119t97 129.5t139.5 107.5t157.5 52v-21q-63 -17 -123.5 -62t-100.5 -98t-64.5 -105.5t-24.5 -86.5q0 -25 12 -25q11 0 37 23t66.5 69t67.5 78t71 86q69 87 95 112t54 25q14 0 22.5 -7t8.5 -17t-11 -37 q-97 -222 -129 -289q-6 -12 -6 -22q0 -15 15 -15q10 0 16.5 5.5t22.5 25.5l135 152l26 -25l-161 -182q-62 -70 -121 -70q-26 0 -40 12t-14 31q0 23 33 94q70 143 70 154q0 6 -6 6q-7 0 -15 -8q-21 -31 -84.5 -109t-99.5 -110q-38 -36 -66 -53t-59 -17q-22 0 -40.5 18 t-18.5 60z" />
<glyph unicode="&#xab;" horiz-adv-x="655" d="M-10 371l334 227l-45 -102l-187 -125l78 -125l-45 -103zM195 371l333 227l-45 -102l-186 -125l78 -125l-45 -103z" />
<glyph unicode="&#xac;" d="M41 627l31 75h606l-115 -280h-84l82 205h-520z" />
<glyph unicode="&#xad;" d="M55 412l39 116h506l-39 -116h-506z" />
<glyph unicode="&#xae;" horiz-adv-x="1024" d="M111 823q0 101 42.5 194.5t111.5 160.5t161 107t188 40q166 0 275.5 -108.5t109.5 -270.5q0 -133 -73 -249.5t-190.5 -183.5t-246.5 -67q-166 0 -272 108t-106 269zM180 827q0 -137 86 -226t232 -89q108 0 208 60.5t161 159.5t61 206q0 140 -87 232t-233 92 q-111 0 -210.5 -62.5t-158.5 -163t-59 -209.5zM289 627l137 385q31 89 88.5 133.5t126.5 44.5q52 0 92.5 -28.5t40.5 -80.5q0 -77 -44.5 -120t-133.5 -76q-15 -5 -22.5 -10.5t-9 -10.5t-1.5 -12q0 -3 14 -33.5t41.5 -84t57.5 -107.5l-78 -27q-70 137 -113 242q-4 12 -4 20 q0 13 9.5 19.5t43 17t60.5 23.5q100 51 100 155q0 33 -14.5 55.5t-44.5 22.5q-17 0 -31 -4.5t-31.5 -17.5t-35 -43.5t-33.5 -77.5l-137 -385h-78z" />
<glyph unicode="&#xaf;" horiz-adv-x="499" d="M121 911l18 66h361l-25 -66h-354z" />
<glyph unicode="&#xb0;" horiz-adv-x="354" d="M201 1055q0 62 51.5 113t116.5 51q46 0 74 -28.5t28 -72.5q0 -62 -51.5 -113t-116.5 -51q-49 0 -75.5 28.5t-26.5 72.5zM270 1036q0 -51 39 -51q38 0 65 52t27 98q0 51 -39 51q-30 0 -61 -48t-31 -102z" />
<glyph unicode="&#xb1;" d="M-133 86l31 78h624l-30 -78h-625zM6 547l33 76h262l113 274h84l-113 -274h279l-31 -76h-279l-110 -277h-84l110 277h-264z" />
<glyph unicode="&#xb2;" horiz-adv-x="610" d="M-76 436q70 52 162.5 112.5t157 100.5t134 91t111.5 94t69.5 98.5t27.5 114.5q0 60 -31 95.5t-90 35.5q-111 0 -178.5 -71.5t-67.5 -164.5q0 -43 25 -82l-97 -51q-12 37 -12 72q0 132 106.5 235t254.5 103q95 0 146.5 -50.5t51.5 -126.5q0 -62 -27 -118t-68 -96.5 t-105.5 -85t-124 -77.5t-140.5 -80t-139 -87q5 2 12.5 6t9.5 4.5t8.5 2t14 1.5h21.5q24 0 82.5 -4t91.5 -4q45 0 70 12t53 39l32 -18l-106 -123q-36 4 -99 13.5t-116 15.5t-105 6q-68 0 -114 -35z" />
<glyph unicode="&#xb3;" horiz-adv-x="591" d="M-111 367q84 8 172 35.5t167.5 72.5t130.5 114.5t51 149.5q0 62 -27 103t-88 41q-33 0 -76 -15l-10 33q43 17 65 19q76 18 138.5 68.5t62.5 121.5q0 39 -20.5 57.5t-53.5 18.5q-56 0 -100.5 -42t-69.5 -106l-61 76q121 105 248 105q69 0 119.5 -30.5t50.5 -82.5 q0 -66 -66 -113t-157 -71q76 -12 120.5 -62t44.5 -115q0 -77 -47.5 -144.5t-119 -112t-161 -79t-166 -51.5t-142.5 -24z" />
<glyph unicode="&#xb4;" horiz-adv-x="499" d="M174 844l145 194h146l-242 -194h-49z" />
<glyph unicode="&#xb5;" horiz-adv-x="679" d="M-299 -289q39 89 173.5 408t238.5 563h116l-194 -463q-25 -59 -25 -82q0 -21 10.5 -33t28.5 -12q30 0 52 7t48 33t49 62t59 108.5t73.5 157t95.5 222.5h117q-13 -32 -108 -255.5t-111 -256.5q-11 -33 -11 -37q0 -18 21 -18q32 0 125 112l24 -18q-111 -135 -153 -172 t-82 -37q-80 0 -35 137q-49 -73 -91 -105t-87 -32q-83 0 -72 94h-6q-20 -51 -60 -174.5t-57 -163.5z" />
<glyph unicode="&#xb6;" horiz-adv-x="933" d="M121 874q0 127 136.5 245t357 193t458.5 85l-584 -1397h-67l571 1360q-63 -8 -100 -14l-563 -1346h-68l291 694q-49 -12 -129 -12q-134 0 -218.5 48.5t-84.5 143.5zM256 879q0 -74 63 -112t156 -38q55 0 96 8l248 592q-146 -39 -273 -107t-208.5 -160t-81.5 -183z" />
<glyph unicode="&#xb7;" horiz-adv-x="268" d="M-10 555q0 29 21 50.5t50 21.5q31 0 52.5 -21.5t21.5 -50.5q0 -31 -21.5 -52.5t-52.5 -21.5q-29 0 -50 21.5t-21 52.5z" />
<glyph unicode="&#xb8;" horiz-adv-x="499" d="M-80 -264l17 22q33 -22 88 -22q53 0 90 29.5t37 74.5q0 26 -15 41t-37 15q-37 0 -73 -33h-27l104 147h27l-70 -100q31 16 89 16q38 0 64 -21t26 -52q0 -59 -62.5 -103.5t-146.5 -44.5q-64 0 -111 31z" />
<glyph unicode="&#xb9;" horiz-adv-x="438" d="M37 846l352 358h109l-332 -782h-105l295 690l-290 -295z" />
<glyph unicode="&#xba;" horiz-adv-x="487" d="M0 598l25 49h374l-22 -49h-377zM72 870q0 109 79.5 205.5t208.5 143.5l15 -17q-105 -83 -159 -187t-54 -190q0 -29 8 -43t31 -14q28 0 69 33.5t82 87.5q-59 34 -59 119q0 70 48 128t99 58q33 0 60.5 -26.5t27.5 -84.5q0 -83 -57 -174q50 12 115 90l22 -20 q-78 -97 -162 -107q-47 -62 -108 -100.5t-125 -38.5q-57 0 -99 36t-42 101zM330 1010q0 -68 43 -92q82 119 82 204q0 16 -8.5 25.5t-18.5 9.5q-33 0 -65.5 -44.5t-32.5 -102.5z" />
<glyph unicode="&#xbb;" horiz-adv-x="655" d="M-59 143l45 103l184 125l-76 125l45 102l135 -227zM145 143l45 103l187 125l-78 125l43 102l137 -227z" />
<glyph unicode="&#xbc;" horiz-adv-x="1136" d="M0 0l854 1219h84l-854 -1219h-84zM96 918l283 286h98l-266 -626h-94l227 534l-219 -221zM346 147q231 174 459 504l84 -43q-53 -78 -198 -221t-267 -217q37 14 86 14q33 0 94.5 -10t77.5 -12l125 297h92l-125 -297q54 3 80 12l-8 -35q-48 -19 -90 -24l-49 -115h-95 l45 109q-36 0 -102.5 11t-97.5 11q-6 0 -19 0.5t-20.5 0t-18 -1t-20.5 -3t-19 -6.5z" />
<glyph unicode="&#xbd;" horiz-adv-x="1226" d="M0 0l854 1219h84l-854 -1219h-84zM96 918l283 286h98l-266 -626h-94l227 534l-219 -221zM395 10q64 48 154.5 105.5t148.5 95.5t115 84t85 95.5t28 105.5q0 40 -21.5 69t-70.5 29q-82 0 -135.5 -54.5t-53.5 -125.5q0 -34 19 -66l-89 -43q-8 27 -8 57q0 105 85.5 189 t203.5 84q79 0 124.5 -41t45.5 -102q0 -59 -26 -107.5t-78.5 -89.5t-104.5 -72t-130.5 -75.5t-131.5 -81.5q24 12 55 12q19 0 53.5 -3t61.5 -3q73 0 119 39l24 -15l-96 -106q-19 2 -78.5 10.5t-101.5 12t-84 3.5q-57 0 -92 -28z" />
<glyph unicode="&#xbe;" horiz-adv-x="1218" d="M41 559q129 35 217 108.5t88 168.5q0 42 -20.5 75t-69.5 33q-16 0 -61 -10l-9 31q28 12 45 14h2q1 0 2.5 1t2.5 1q61 12 111 53t50 99q0 55 -57 55q-84 0 -135 -119l-51 66q99 84 196 84q67 0 107.5 -24.5t40.5 -66.5q0 -56 -53.5 -93t-131.5 -54q66 -10 103 -49t37 -92 q0 -61 -38 -114.5t-101 -90.5t-128 -62.5t-137 -42.5zM82 0l852 1219h84l-852 -1219h-84zM428 147q231 174 459 504l82 -43q-53 -78 -198 -221t-267 -217q39 14 86 14q35 0 97 -10.5t75 -11.5l127 297h92l-127 -297q56 3 82 12l-10 -35q-49 -19 -90 -24l-48 -115h-94l45 109 q-37 0 -104.5 11t-97.5 11q-6 0 -19 0.5t-20.5 0t-18 -1t-19.5 -3t-18 -6.5z" />
<glyph unicode="&#xbf;" horiz-adv-x="839" d="M-100 -283q0 81 30 159t80.5 143t112.5 128t129 126t127 124t110.5 133.5t75.5 145.5h41q-32 -84 -82 -164t-102.5 -142.5t-109.5 -124.5t-106.5 -121.5t-89.5 -122t-63.5 -137t-23.5 -155.5q0 -79 39.5 -135.5t109.5 -56.5q115 0 207 95t92 212q0 62 -35 97.5t-96 35.5 q-19 0 -36.5 -4t-30.5 -12t-21 -13.5t-18 -14.5l-9 -9l-12 24q39 43 91.5 64.5t95.5 21.5q74 0 127 -44t53 -122q0 -97 -68 -184.5t-169 -136.5t-202 -49q-109 0 -178 67.5t-69 171.5zM543 811q0 31 21 52.5t52 21.5q29 0 50.5 -21.5t21.5 -52.5q0 -29 -21.5 -50.5 t-50.5 -21.5q-30 0 -51.5 21.5t-21.5 50.5z" />
<glyph unicode="&#xc0;" horiz-adv-x="1470" d="M-139 174q0 112 76.5 194.5t210.5 124.5t309 42h63q160 272 282 450t218 276t169 135.5t150 37.5q65 0 101.5 -38.5t36.5 -117.5q0 -117 -84 -322l-179 -421h101l-43 -93h-96l-187 -442h-133l186 442h-436q-6 -14 -14 -28q-241 -432 -531 -432q-88 0 -144 52t-56 140z M-90 178q0 -62 39 -103.5t121 -41.5q47 0 92.5 22t75 45.5t71.5 83t58.5 86.5t60.5 105q4 7 6.5 10.5t5.5 9.5t6 11l23 36h-59q-137 0 -238 -22.5t-156 -61t-80.5 -83.5t-25.5 -97zM659 535h420l178 421q48 117 69 170t39.5 113.5t18.5 93.5q0 64 -57 64q-37 0 -64.5 -8.5 t-67 -37.5t-83.5 -85t-109 -152t-148.5 -237.5t-195.5 -341.5zM1300 1731h125l-2 -195h-32z" />
<glyph unicode="&#xc1;" horiz-adv-x="1470" d="M-139 174q0 112 76.5 194.5t210.5 124.5t309 42h63q160 272 282 450t218 276t169 135.5t150 37.5q65 0 101.5 -38.5t36.5 -117.5q0 -117 -84 -322l-179 -421h101l-43 -93h-96l-187 -442h-133l186 442h-436q-6 -14 -14 -28q-241 -432 -531 -432q-88 0 -144 52t-56 140z M-90 178q0 -62 39 -103.5t121 -41.5q47 0 92.5 22t75 45.5t71.5 83t58.5 86.5t60.5 105q4 7 6.5 10.5t5.5 9.5t6 11l23 36h-59q-137 0 -238 -22.5t-156 -61t-80.5 -83.5t-25.5 -97zM659 535h420l178 421q48 117 69 170t39.5 113.5t18.5 93.5q0 64 -57 64q-37 0 -64.5 -8.5 t-67 -37.5t-83.5 -85t-109 -152t-148.5 -237.5t-195.5 -341.5zM1257 1536l146 195h145l-241 -195h-50z" />
<glyph unicode="&#xc2;" horiz-adv-x="1470" d="M-139 174q0 112 76.5 194.5t210.5 124.5t309 42h63q160 272 282 450t218 276t169 135.5t150 37.5q65 0 101.5 -38.5t36.5 -117.5q0 -117 -84 -322l-179 -421h101l-43 -93h-96l-187 -442h-133l186 442h-436q-6 -14 -14 -28q-241 -432 -531 -432q-88 0 -144 52t-56 140z M-90 178q0 -62 39 -103.5t121 -41.5q47 0 92.5 22t75 45.5t71.5 83t58.5 86.5t60.5 105q4 7 6.5 10.5t5.5 9.5t6 11l23 36h-59q-137 0 -238 -22.5t-156 -61t-80.5 -83.5t-25.5 -97zM659 535h420l178 421q48 117 69 170t39.5 113.5t18.5 93.5q0 64 -57 64q-37 0 -64.5 -8.5 t-67 -37.5t-83.5 -85t-109 -152t-148.5 -237.5t-195.5 -341.5zM1186 1536l205 193h90l59 -193h-100l-35 133l-145 -133h-74z" />
<glyph unicode="&#xc3;" horiz-adv-x="1470" d="M-139 174q0 112 76.5 194.5t210.5 124.5t309 42h63q160 272 282 450t218 276t169 135.5t150 37.5q65 0 101.5 -38.5t36.5 -117.5q0 -117 -84 -322l-179 -421h101l-43 -93h-96l-187 -442h-133l186 442h-436q-6 -14 -14 -28q-241 -432 -531 -432q-88 0 -144 52t-56 140z M-90 178q0 -62 39 -103.5t121 -41.5q47 0 92.5 22t75 45.5t71.5 83t58.5 86.5t60.5 105q4 7 6.5 10.5t5.5 9.5t6 11l23 36h-59q-137 0 -238 -22.5t-156 -61t-80.5 -83.5t-25.5 -97zM659 535h420l178 421q48 117 69 170t39.5 113.5t18.5 93.5q0 64 -57 64q-37 0 -64.5 -8.5 t-67 -37.5t-83.5 -85t-109 -152t-148.5 -237.5t-195.5 -341.5zM1176 1552q38 89 73 127.5t76 38.5q31 0 72.5 -41t68.5 -41q23 0 43.5 16.5t46.5 65.5h54q-39 -87 -76 -126.5t-82 -39.5q-22 0 -43 13t-34 28t-30 28t-32 13q-23 0 -42 -17t-42 -65h-53z" />
<glyph unicode="&#xc4;" horiz-adv-x="1470" d="M-139 174q0 112 76.5 194.5t210.5 124.5t309 42h63q160 272 282 450t218 276t169 135.5t150 37.5q65 0 101.5 -38.5t36.5 -117.5q0 -117 -84 -322l-179 -421h101l-43 -93h-96l-187 -442h-133l186 442h-436q-6 -14 -14 -28q-241 -432 -531 -432q-88 0 -144 52t-56 140z M-90 178q0 -62 39 -103.5t121 -41.5q47 0 92.5 22t75 45.5t71.5 83t58.5 86.5t60.5 105q4 7 6.5 10.5t5.5 9.5t6 11l23 36h-59q-137 0 -238 -22.5t-156 -61t-80.5 -83.5t-25.5 -97zM659 535h420l178 421q48 117 69 170t39.5 113.5t18.5 93.5q0 64 -57 64q-37 0 -64.5 -8.5 t-67 -37.5t-83.5 -85t-109 -152t-148.5 -237.5t-195.5 -341.5zM1204 1630q0 32 21 54t51 22q31 0 52.5 -22t21.5 -54q0 -29 -21.5 -50t-52.5 -21q-29 0 -50.5 21t-21.5 50zM1417 1630q0 32 21.5 54t52.5 22q30 0 51 -22t21 -54q0 -29 -21.5 -50t-50.5 -21q-31 0 -52.5 21 t-21.5 50z" />
<glyph unicode="&#xc5;" horiz-adv-x="1470" d="M-139 174q0 112 76.5 194.5t210.5 124.5t309 42h63q160 272 282 450t218 276t169 135.5t150 37.5q65 0 101.5 -38.5t36.5 -117.5q0 -117 -84 -322l-179 -421h101l-43 -93h-96l-187 -442h-133l186 442h-436q-6 -14 -14 -28q-241 -432 -531 -432q-88 0 -144 52t-56 140z M-90 178q0 -62 39 -103.5t121 -41.5q47 0 92.5 22t75 45.5t71.5 83t58.5 86.5t60.5 105q4 7 6.5 10.5t5.5 9.5t6 11l23 36h-59q-137 0 -238 -22.5t-156 -61t-80.5 -83.5t-25.5 -97zM659 535h420l178 421q48 117 69 170t39.5 113.5t18.5 93.5q0 64 -57 64q-37 0 -64.5 -8.5 t-67 -37.5t-83.5 -85t-109 -152t-148.5 -237.5t-195.5 -341.5zM1231 1626q0 83 67.5 149t147.5 66q53 0 88 -31t35 -81q0 -87 -71.5 -150t-147.5 -63q-54 0 -86.5 30t-32.5 80zM1303 1618q0 -68 51 -68q57 0 99 62.5t42 124.5q0 32 -14 50.5t-39 18.5q-58 0 -98.5 -62.5 t-40.5 -125.5z" />
<glyph unicode="&#xc6;" horiz-adv-x="1900" d="M-139 174q0 112 76.5 194.5t210.5 124.5t309 42h63q160 272 282 450t218 276t169 135.5t150 37.5q65 0 101.5 -38.5t36.5 -117.5q0 -24 -7 -59q58 95 142.5 156t179.5 61q51 0 85 -34.5t34 -88.5q0 -88 -108 -164.5t-296 -124.5q5 -27 25 -82t20 -86q0 -50 -22 -91 t-58 -69.5t-79 -55.5t-85.5 -57.5t-78.5 -66.5t-58 -90.5t-22 -122.5q0 -63 24.5 -114.5t63.5 -83t85 -48t93 -16.5q37 0 67 4t76 18t101 48t115 86l24 -33q-126 -107 -225.5 -144.5t-212.5 -37.5q-105 0 -188 39.5t-125 113.5l-58 -135h-133l186 442h-436q-6 -14 -14 -28 q-241 -432 -531 -432q-88 0 -144 52t-56 140zM-90 178q0 -62 39 -103.5t121 -41.5q47 0 92.5 22t75 45.5t71.5 83t58.5 86.5t60.5 105q4 7 6.5 10.5t5.5 9.5t6 11l23 36h-59q-137 0 -238 -22.5t-156 -61t-80.5 -83.5t-25.5 -97zM659 535h420l178 421q48 117 69 170 t39.5 113.5t18.5 93.5q0 64 -57 64q-37 0 -64.5 -8.5t-67 -37.5t-83.5 -85t-109 -152t-148.5 -237.5t-195.5 -341.5zM1249 618q12 8 40 25t40 25t33 23t31 25t22 23.5t16.5 27t4.5 28.5q0 11 -18 67.5t-19 110.5q-5 -15 -6 -17zM1503 1067q309 80 309 250q0 74 -67 74 q-31 0 -71.5 -23t-79 -62.5t-65 -102t-26.5 -132.5v-4z" />
<glyph unicode="&#xc7;" horiz-adv-x="1054" d="M16 362q0 136 39.5 274.5t106 254t153.5 218t179.5 173t186.5 111.5t173 41q128 0 209.5 -73.5t81.5 -191.5q0 -130 -100 -258t-234 -174l-20 27q113 54 177 163t64 253q0 97 -43.5 157t-122.5 60q-98 0 -203 -66.5t-193 -176.5t-159.5 -242.5t-112 -275.5t-40.5 -265 q0 -165 65 -245.5t176 -80.5q20 0 44 3t72 15t106 44.5t112 82.5l27 -36q-49 -47 -103.5 -81.5t-97 -51t-86.5 -26.5t-65.5 -11.5t-40.5 -1.5q-6 0 -18.5 1t-18.5 1l-51 -74q27 16 88 16q38 0 64 -21t26 -52q0 -59 -62.5 -103.5t-146.5 -44.5q-64 0 -111 31l17 22 q33 -22 88 -22q53 0 90 29.5t37 74.5q0 26 -15 41t-37 15q-37 0 -73 -33h-27l86 125q-54 8 -102 31.5t-91.5 66t-68.5 113.5t-25 163z" />
<glyph unicode="&#xc8;" horiz-adv-x="837" d="M-51 276q0 67 23.5 124t61 96.5t82.5 73.5t90 61t82.5 52t61 53.5t23.5 58.5q0 11 -18.5 69t-18.5 115q0 12 2 20q-87 -15 -148 -22l-24 43q96 9 176 24q13 69 47.5 138t84 126t116.5 92.5t137 35.5q53 0 87 -34.5t34 -88.5q0 -88 -107.5 -163.5t-296.5 -125.5 q5 -27 25 -82t20 -86q0 -50 -22 -91t-58 -69.5t-79 -55.5t-85.5 -57.5t-78.5 -66.5t-58 -90.5t-22 -122.5q0 -63 24.5 -114.5t63.5 -83t85 -48t93 -16.5q37 0 67 4t76 18t101 48t115 86l24 -33q-126 -107 -225.5 -144.5t-212.5 -37.5q-151 0 -249.5 77t-98.5 217zM440 1067 q150 39 230 102t80 148q0 74 -68 74q-31 0 -71.5 -23t-79 -62.5t-65 -102t-26.5 -132.5v-4zM637 1729h125l-2 -195h-33z" />
<glyph unicode="&#xc9;" horiz-adv-x="837" d="M-51 276q0 67 23.5 124t61 96.5t82.5 73.5t90 61t82.5 52t61 53.5t23.5 58.5q0 11 -18.5 69t-18.5 115q0 12 2 20q-87 -15 -148 -22l-24 43q96 9 176 24q13 69 47.5 138t84 126t116.5 92.5t137 35.5q53 0 87 -34.5t34 -88.5q0 -88 -107.5 -163.5t-296.5 -125.5 q5 -27 25 -82t20 -86q0 -50 -22 -91t-58 -69.5t-79 -55.5t-85.5 -57.5t-78.5 -66.5t-58 -90.5t-22 -122.5q0 -63 24.5 -114.5t63.5 -83t85 -48t93 -16.5q37 0 67 4t76 18t101 48t115 86l24 -33q-126 -107 -225.5 -144.5t-212.5 -37.5q-151 0 -249.5 77t-98.5 217zM440 1067 q150 39 230 102t80 148q0 74 -68 74q-31 0 -71.5 -23t-79 -62.5t-65 -102t-26.5 -132.5v-4zM594 1534l145 195h146l-242 -195h-49z" />
<glyph unicode="&#xca;" horiz-adv-x="837" d="M-51 276q0 67 23.5 124t61 96.5t82.5 73.5t90 61t82.5 52t61 53.5t23.5 58.5q0 11 -18.5 69t-18.5 115q0 12 2 20q-87 -15 -148 -22l-24 43q96 9 176 24q13 69 47.5 138t84 126t116.5 92.5t137 35.5q53 0 87 -34.5t34 -88.5q0 -88 -107.5 -163.5t-296.5 -125.5 q5 -27 25 -82t20 -86q0 -50 -22 -91t-58 -69.5t-79 -55.5t-85.5 -57.5t-78.5 -66.5t-58 -90.5t-22 -122.5q0 -63 24.5 -114.5t63.5 -83t85 -48t93 -16.5q37 0 67 4t76 18t101 48t115 86l24 -33q-126 -107 -225.5 -144.5t-212.5 -37.5q-151 0 -249.5 77t-98.5 217zM440 1067 q150 39 230 102t80 148q0 74 -68 74q-31 0 -71.5 -23t-79 -62.5t-65 -102t-26.5 -132.5v-4zM522 1534l205 192h90l60 -192h-101l-35 133l-145 -133h-74z" />
<glyph unicode="&#xcb;" horiz-adv-x="837" d="M-51 276q0 67 23.5 124t61 96.5t82.5 73.5t90 61t82.5 52t61 53.5t23.5 58.5q0 11 -18.5 69t-18.5 115q0 12 2 20q-87 -15 -148 -22l-24 43q96 9 176 24q13 69 47.5 138t84 126t116.5 92.5t137 35.5q53 0 87 -34.5t34 -88.5q0 -88 -107.5 -163.5t-296.5 -125.5 q5 -27 25 -82t20 -86q0 -50 -22 -91t-58 -69.5t-79 -55.5t-85.5 -57.5t-78.5 -66.5t-58 -90.5t-22 -122.5q0 -63 24.5 -114.5t63.5 -83t85 -48t93 -16.5q37 0 67 4t76 18t101 48t115 86l24 -33q-126 -107 -225.5 -144.5t-212.5 -37.5q-151 0 -249.5 77t-98.5 217zM440 1067 q150 39 230 102t80 148q0 74 -68 74q-31 0 -71.5 -23t-79 -62.5t-65 -102t-26.5 -132.5v-4zM541 1628q0 32 21 54t50 22q31 0 52.5 -22t21.5 -54q0 -29 -21.5 -50.5t-52.5 -21.5q-29 0 -50 21.5t-21 50.5zM754 1628q0 32 21 54t52 22q30 0 51 -22t21 -54q0 -29 -21.5 -50.5 t-50.5 -21.5q-31 0 -52 21t-21 51z" />
<glyph unicode="&#xcc;" horiz-adv-x="913" d="M-41 133l98 62q-12 -49 -12 -82q0 -43 20.5 -65.5t51.5 -22.5q77 0 165.5 80t180.5 239q-52 -10 -94 -10q-52 0 -102 17t-92.5 50t-68.5 89t-26 126q0 117 53.5 241t136 224t177 181.5t183.5 126.5t148 45q52 0 84.5 -53.5t32.5 -155.5q0 -236 -197 -668q-2 -5 -6 -14.5 t-6 -14.5q46 47 129 140l33 -33q-8 -8 -30.5 -33t-31.5 -34.5t-28.5 -30t-31 -31.5t-28.5 -27t-31.5 -28t-29.5 -23q-235 -446 -504 -446q-79 0 -125.5 41.5t-48.5 109.5zM209 623q0 -111 60.5 -173.5t148.5 -62.5q39 0 76 12q51 97 102 217q213 514 213 697q0 84 -49 84 q-29 0 -81.5 -33.5t-113.5 -89t-124.5 -133t-115 -161t-84 -178.5t-32.5 -179zM686 1729h125l-2 -195h-33z" />
<glyph unicode="&#xcd;" horiz-adv-x="913" d="M-41 133l98 62q-12 -49 -12 -82q0 -43 20.5 -65.5t51.5 -22.5q77 0 165.5 80t180.5 239q-52 -10 -94 -10q-52 0 -102 17t-92.5 50t-68.5 89t-26 126q0 117 53.5 241t136 224t177 181.5t183.5 126.5t148 45q52 0 84.5 -53.5t32.5 -155.5q0 -236 -197 -668q-2 -5 -6 -14.5 t-6 -14.5q46 47 129 140l33 -33q-8 -8 -30.5 -33t-31.5 -34.5t-28.5 -30t-31 -31.5t-28.5 -27t-31.5 -28t-29.5 -23q-235 -446 -504 -446q-79 0 -125.5 41.5t-48.5 109.5zM209 623q0 -111 60.5 -173.5t148.5 -62.5q39 0 76 12q51 97 102 217q213 514 213 697q0 84 -49 84 q-29 0 -81.5 -33.5t-113.5 -89t-124.5 -133t-115 -161t-84 -178.5t-32.5 -179zM643 1534l145 195h146l-242 -195h-49z" />
<glyph unicode="&#xce;" horiz-adv-x="913" d="M-41 133l98 62q-12 -49 -12 -82q0 -43 20.5 -65.5t51.5 -22.5q77 0 165.5 80t180.5 239q-52 -10 -94 -10q-52 0 -102 17t-92.5 50t-68.5 89t-26 126q0 117 53.5 241t136 224t177 181.5t183.5 126.5t148 45q52 0 84.5 -53.5t32.5 -155.5q0 -236 -197 -668q-2 -5 -6 -14.5 t-6 -14.5q46 47 129 140l33 -33q-8 -8 -30.5 -33t-31.5 -34.5t-28.5 -30t-31 -31.5t-28.5 -27t-31.5 -28t-29.5 -23q-235 -446 -504 -446q-79 0 -125.5 41.5t-48.5 109.5zM209 623q0 -111 60.5 -173.5t148.5 -62.5q39 0 76 12q51 97 102 217q213 514 213 697q0 84 -49 84 q-29 0 -81.5 -33.5t-113.5 -89t-124.5 -133t-115 -161t-84 -178.5t-32.5 -179zM571 1534l205 192h90l60 -192h-101l-34 133l-146 -133h-74z" />
<glyph unicode="&#xcf;" horiz-adv-x="913" d="M-41 133l98 62q-12 -49 -12 -82q0 -43 20.5 -65.5t51.5 -22.5q77 0 165.5 80t180.5 239q-52 -10 -94 -10q-52 0 -102 17t-92.5 50t-68.5 89t-26 126q0 117 53.5 241t136 224t177 181.5t183.5 126.5t148 45q52 0 84.5 -53.5t32.5 -155.5q0 -236 -197 -668q-2 -5 -6 -14.5 t-6 -14.5q46 47 129 140l33 -33q-8 -8 -30.5 -33t-31.5 -34.5t-28.5 -30t-31 -31.5t-28.5 -27t-31.5 -28t-29.5 -23q-235 -446 -504 -446q-79 0 -125.5 41.5t-48.5 109.5zM209 623q0 -111 60.5 -173.5t148.5 -62.5q39 0 76 12q51 97 102 217q213 514 213 697q0 84 -49 84 q-29 0 -81.5 -33.5t-113.5 -89t-124.5 -133t-115 -161t-84 -178.5t-32.5 -179zM590 1628q0 32 21 54t51 22q31 0 52 -22t21 -54q0 -30 -21.5 -51t-51.5 -21q-29 0 -50.5 21.5t-21.5 50.5zM803 1628q0 32 21.5 54t52.5 22q29 0 50 -22t21 -54q0 -29 -21 -50.5t-50 -21.5 q-31 0 -52.5 21.5t-21.5 50.5z" />
<glyph unicode="&#xd0;" horiz-adv-x="1409" d="M-152 129q0 81 64 140t158 59q71 0 153 -72q30 60 125 283h-194l26 61h193l119 283h-119q-70 0 -129.5 18.5t-100.5 61t-41 102.5q0 68 45.5 134t126 118.5t202 84.5t261.5 32q110 0 212.5 -40t183.5 -112.5t129.5 -184.5t48.5 -247q0 -96 -26 -198.5t-73 -198.5 t-115 -182t-148 -150t-177 -101.5t-197 -37.5q-94 0 -166 39t-145 106q-115 -141 -260 -141q-61 0 -108.5 37t-47.5 106zM-102 133q0 -45 26.5 -71.5t71.5 -26.5q58 0 103 38t94 124q-82 75 -140 75q-70 0 -112.5 -44t-42.5 -95zM213 1100q0 -62 43.5 -94.5t151.5 -32.5h120 l148 350h129l-148 -350h322l-37 -90h-321l-119 -283h225l-29 -61h-223l-49 -119q-66 -152 -121 -236q50 -45 82 -70t83 -48t101 -23q100 0 194 51.5t165.5 138.5t126.5 195.5t83.5 228t28.5 230.5q0 109 -27 200t-80 161.5t-140.5 109.5t-200.5 39q-220 0 -364 -91.5 t-144 -205.5z" />
<glyph unicode="&#xd1;" horiz-adv-x="1310" d="M49 1130q187 192 360 302t273 110q106 0 106 -127q0 -118 -86 -317l-77 -185q96 139 181.5 237t156 150t127.5 74.5t110 22.5q109 0 109 -125q0 -115 -84 -318l-283 -663q-74 -175 -106.5 -264.5t-32.5 -135.5q0 -45 35 -45q19 0 57.5 25.5t91.5 87.5l33 -27 q-69 -79 -117 -105t-90 -26q-61 0 -89 36t-28 89q0 21 2.5 44.5t11 53t14 49.5t20.5 57.5t21 51.5t24.5 57.5t21.5 51.5l281 663q10 24 35.5 83t37.5 88.5t28 72.5t23 72.5t7 50.5q0 41 -29 41q-6 0 -17 -1.5t-48 -14.5t-76.5 -35.5t-100.5 -71.5t-122.5 -116t-139.5 -175.5 t-155 -242.5l-299 -705h-125l464 1098q119 280 119 362q0 47 -30 47q-9 0 -26.5 -3t-76 -29.5t-123 -73.5t-165 -150t-203.5 -243zM864 1554q38 89 73 127.5t77 38.5q31 0 72.5 -41t68.5 -41q23 0 43.5 16.5t46.5 65.5h53q-39 -88 -75.5 -127t-81.5 -39q-28 0 -53 20.5 t-46.5 41t-40.5 20.5q-23 0 -41 -16.5t-42 -65.5h-54z" />
<glyph unicode="&#xd2;" horiz-adv-x="1161" d="M14 358q0 172 64 355q33 96 78.5 183.5t91 150t92.5 115.5t87.5 87t72.5 58t50 35l19 10l19 -23q-8 -7 -23 -20.5t-59 -65.5t-86 -115.5t-96.5 -174t-98.5 -236.5q-75 -213 -75 -389q0 -134 49.5 -214.5t134.5 -80.5q64 0 142.5 48.5t155.5 129.5t151 192t130.5 230 t90.5 250.5t34 246.5q0 43 -4.5 82t-18 86t-44.5 75t-76 28q-86 0 -173 -99.5t-141.5 -249t-54.5 -290.5q0 -108 31 -160.5t102 -52.5q44 0 73 17t36 32l10 -27q-60 -90 -166 -90q-88 0 -137 72.5t-49 202.5q0 140 76 300.5t190.5 270t216.5 109.5q31 0 62 -11t63 -38.5 t57 -69t40.5 -109t15.5 -151.5q0 -135 -38 -273.5t-102 -256t-148.5 -221.5t-176.5 -176.5t-187.5 -114.5t-179.5 -42q-137 0 -219 106.5t-82 278.5zM807 1731h125l-2 -195h-33z" />
<glyph unicode="&#xd3;" horiz-adv-x="1161" d="M14 358q0 172 64 355q33 96 78.5 183.5t91 150t92.5 115.5t87.5 87t72.5 58t50 35l19 10l19 -23q-8 -7 -23 -20.5t-59 -65.5t-86 -115.5t-96.5 -174t-98.5 -236.5q-75 -213 -75 -389q0 -134 49.5 -214.5t134.5 -80.5q64 0 142.5 48.5t155.5 129.5t151 192t130.5 230 t90.5 250.5t34 246.5q0 43 -4.5 82t-18 86t-44.5 75t-76 28q-86 0 -173 -99.5t-141.5 -249t-54.5 -290.5q0 -108 31 -160.5t102 -52.5q44 0 73 17t36 32l10 -27q-60 -90 -166 -90q-88 0 -137 72.5t-49 202.5q0 140 76 300.5t190.5 270t216.5 109.5q31 0 62 -11t63 -38.5 t57 -69t40.5 -109t15.5 -151.5q0 -135 -38 -273.5t-102 -256t-148.5 -221.5t-176.5 -176.5t-187.5 -114.5t-179.5 -42q-137 0 -219 106.5t-82 278.5zM764 1536l145 195h146l-242 -195h-49z" />
<glyph unicode="&#xd4;" horiz-adv-x="1161" d="M14 358q0 172 64 355q33 96 78.5 183.5t91 150t92.5 115.5t87.5 87t72.5 58t50 35l19 10l19 -23q-8 -7 -23 -20.5t-59 -65.5t-86 -115.5t-96.5 -174t-98.5 -236.5q-75 -213 -75 -389q0 -134 49.5 -214.5t134.5 -80.5q64 0 142.5 48.5t155.5 129.5t151 192t130.5 230 t90.5 250.5t34 246.5q0 43 -4.5 82t-18 86t-44.5 75t-76 28q-86 0 -173 -99.5t-141.5 -249t-54.5 -290.5q0 -108 31 -160.5t102 -52.5q44 0 73 17t36 32l10 -27q-60 -90 -166 -90q-88 0 -137 72.5t-49 202.5q0 140 76 300.5t190.5 270t216.5 109.5q31 0 62 -11t63 -38.5 t57 -69t40.5 -109t15.5 -151.5q0 -135 -38 -273.5t-102 -256t-148.5 -221.5t-176.5 -176.5t-187.5 -114.5t-179.5 -42q-137 0 -219 106.5t-82 278.5zM692 1536l205 193h90l60 -193h-101l-35 133l-145 -133h-74z" />
<glyph unicode="&#xd5;" horiz-adv-x="1161" d="M14 358q0 172 64 355q33 96 78.5 183.5t91 150t92.5 115.5t87.5 87t72.5 58t50 35l19 10l19 -23q-8 -7 -23 -20.5t-59 -65.5t-86 -115.5t-96.5 -174t-98.5 -236.5q-75 -213 -75 -389q0 -134 49.5 -214.5t134.5 -80.5q64 0 142.5 48.5t155.5 129.5t151 192t130.5 230 t90.5 250.5t34 246.5q0 43 -4.5 82t-18 86t-44.5 75t-76 28q-86 0 -173 -99.5t-141.5 -249t-54.5 -290.5q0 -108 31 -160.5t102 -52.5q44 0 73 17t36 32l10 -27q-60 -90 -166 -90q-88 0 -137 72.5t-49 202.5q0 140 76 300.5t190.5 270t216.5 109.5q31 0 62 -11t63 -38.5 t57 -69t40.5 -109t15.5 -151.5q0 -135 -38 -273.5t-102 -256t-148.5 -221.5t-176.5 -176.5t-187.5 -114.5t-179.5 -42q-137 0 -219 106.5t-82 278.5zM682 1552q38 89 73 127.5t76 38.5q31 0 73 -41t69 -41q23 0 43.5 16.5t46.5 65.5h53q-39 -87 -76 -126.5t-82 -39.5 q-22 0 -43 13t-34 28t-30 28t-32 13q-23 0 -42 -17t-42 -65h-53z" />
<glyph unicode="&#xd6;" horiz-adv-x="1161" d="M14 358q0 172 64 355q33 96 78.5 183.5t91 150t92.5 115.5t87.5 87t72.5 58t50 35l19 10l19 -23q-8 -7 -23 -20.5t-59 -65.5t-86 -115.5t-96.5 -174t-98.5 -236.5q-75 -213 -75 -389q0 -134 49.5 -214.5t134.5 -80.5q64 0 142.5 48.5t155.5 129.5t151 192t130.5 230 t90.5 250.5t34 246.5q0 43 -4.5 82t-18 86t-44.5 75t-76 28q-86 0 -173 -99.5t-141.5 -249t-54.5 -290.5q0 -108 31 -160.5t102 -52.5q44 0 73 17t36 32l10 -27q-60 -90 -166 -90q-88 0 -137 72.5t-49 202.5q0 140 76 300.5t190.5 270t216.5 109.5q31 0 62 -11t63 -38.5 t57 -69t40.5 -109t15.5 -151.5q0 -135 -38 -273.5t-102 -256t-148.5 -221.5t-176.5 -176.5t-187.5 -114.5t-179.5 -42q-137 0 -219 106.5t-82 278.5zM711 1630q0 32 21 54t50 22q31 0 52.5 -22t21.5 -54q0 -29 -21.5 -50t-52.5 -21q-29 0 -50 21t-21 50zM924 1630 q0 32 21 54t52 22q30 0 51 -22t21 -54q0 -29 -21.5 -50t-50.5 -21q-31 0 -52 21t-21 50z" />
<glyph unicode="&#xd7;" d="M43 377l246 209l-170 209l63 53l170 -209l248 209l43 -53l-248 -209l172 -209l-63 -53l-170 206l-248 -206z" />
<glyph unicode="&#xd8;" horiz-adv-x="1161" d="M-6 -115l119 174q-99 110 -99 299q0 172 64 355q33 96 78.5 183.5t91 150t92.5 115.5t87.5 87t72.5 58t50 35l19 10l19 -23q-8 -7 -23 -20.5t-59 -65.5t-86 -115.5t-96.5 -174t-98.5 -236.5q-75 -213 -75 -389q0 -96 26 -172l287 419q-37 67 -37 181q0 140 76 300.5 t190.5 270t216.5 109.5q58 0 111 -37l92 137l53 -35l-98 -147q80 -105 80 -297q0 -135 -38 -273.5t-102 -256t-148.5 -221.5t-176.5 -176.5t-187.5 -114.5t-179.5 -42q-86 0 -153 45l-115 -168zM213 92q47 -59 121 -59q64 0 142.5 48.5t155.5 129.5t151 192t130.5 230 t90.5 250.5t34 246.5q0 88 -18 154l-463 -682q29 -53 102 -53q44 0 73 17t36 32l10 -27q-60 -90 -166 -90q-68 0 -110 39zM526 762q0 -59 4 -82l457 672q-34 49 -92 49q-86 0 -173 -99.5t-141.5 -249t-54.5 -290.5z" />
<glyph unicode="&#xd9;" horiz-adv-x="1398" d="M49 1022q185 191 363.5 301.5t277.5 110.5q55 0 83 -32t28 -87q0 -113 -92 -326l-242 -565q-105 -258 -105 -344q0 -45 44 -45q18 0 38.5 4t59.5 21t80 45t98 83t115 127.5t130 185.5t144 251l279 645h129l-506 -1188q-35 -80 -35 -127q0 -24 10.5 -35.5t24.5 -11.5 q60 0 113 59t179 246q7 10 11 16t10.5 15.5t11.5 17.5l27 -16q-138 -214 -191 -277q-84 -101 -166 -114q-15 -2 -30 -2t-30 3t-37 13t-36 35.5t-14 64.5q0 73 49 185l64 149q-165 -243 -304.5 -345.5t-250.5 -102.5q-62 0 -94.5 38t-32.5 99q0 110 84 305l239 565 q42 96 62.5 146.5t42.5 118.5t22 102q0 41 -28 41q-9 0 -27 -4t-78.5 -32.5t-125.5 -77t-166.5 -152.5t-204.5 -244zM1012 1714h125l-2 -194h-33z" />
<glyph unicode="&#xda;" horiz-adv-x="1398" d="M49 1022q185 191 363.5 301.5t277.5 110.5q55 0 83 -32t28 -87q0 -113 -92 -326l-242 -565q-105 -258 -105 -344q0 -45 44 -45q18 0 38.5 4t59.5 21t80 45t98 83t115 127.5t130 185.5t144 251l279 645h129l-506 -1188q-35 -80 -35 -127q0 -24 10.5 -35.5t24.5 -11.5 q60 0 113 59t179 246q7 10 11 16t10.5 15.5t11.5 17.5l27 -16q-138 -214 -191 -277q-84 -101 -166 -114q-15 -2 -30 -2t-30 3t-37 13t-36 35.5t-14 64.5q0 73 49 185l64 149q-165 -243 -304.5 -345.5t-250.5 -102.5q-62 0 -94.5 38t-32.5 99q0 110 84 305l239 565 q42 96 62.5 146.5t42.5 118.5t22 102q0 41 -28 41q-9 0 -27 -4t-78.5 -32.5t-125.5 -77t-166.5 -152.5t-204.5 -244zM969 1520l145 194h146l-242 -194h-49z" />
<glyph unicode="&#xdb;" horiz-adv-x="1398" d="M49 1022q185 191 363.5 301.5t277.5 110.5q55 0 83 -32t28 -87q0 -113 -92 -326l-242 -565q-105 -258 -105 -344q0 -45 44 -45q18 0 38.5 4t59.5 21t80 45t98 83t115 127.5t130 185.5t144 251l279 645h129l-506 -1188q-35 -80 -35 -127q0 -24 10.5 -35.5t24.5 -11.5 q60 0 113 59t179 246q7 10 11 16t10.5 15.5t11.5 17.5l27 -16q-138 -214 -191 -277q-84 -101 -166 -114q-15 -2 -30 -2t-30 3t-37 13t-36 35.5t-14 64.5q0 73 49 185l64 149q-165 -243 -304.5 -345.5t-250.5 -102.5q-62 0 -94.5 38t-32.5 99q0 110 84 305l239 565 q42 96 62.5 146.5t42.5 118.5t22 102q0 41 -28 41q-9 0 -27 -4t-78.5 -32.5t-125.5 -77t-166.5 -152.5t-204.5 -244zM897 1520l205 192h90l59 -192h-100l-35 133l-145 -133h-74z" />
<glyph unicode="&#xdc;" horiz-adv-x="1398" d="M49 1022q185 191 363.5 301.5t277.5 110.5q55 0 83 -32t28 -87q0 -113 -92 -326l-242 -565q-105 -258 -105 -344q0 -45 44 -45q18 0 38.5 4t59.5 21t80 45t98 83t115 127.5t130 185.5t144 251l279 645h129l-506 -1188q-35 -80 -35 -127q0 -24 10.5 -35.5t24.5 -11.5 q60 0 113 59t179 246q7 10 11 16t10.5 15.5t11.5 17.5l27 -16q-138 -214 -191 -277q-84 -101 -166 -114q-15 -2 -30 -2t-30 3t-37 13t-36 35.5t-14 64.5q0 73 49 185l64 149q-165 -243 -304.5 -345.5t-250.5 -102.5q-62 0 -94.5 38t-32.5 99q0 110 84 305l239 565 q42 96 62.5 146.5t42.5 118.5t22 102q0 41 -28 41q-9 0 -27 -4t-78.5 -32.5t-125.5 -77t-166.5 -152.5t-204.5 -244zM915 1614q0 32 21 54t51 22q31 0 52.5 -22t21.5 -54q0 -29 -21.5 -50.5t-52.5 -21.5q-29 0 -50.5 21.5t-21.5 50.5zM1128 1614q0 32 21.5 54t52.5 22 q30 0 51 -22t21 -54q0 -29 -21.5 -50.5t-50.5 -21.5q-31 0 -52.5 21.5t-21.5 50.5z" />
<glyph unicode="&#xdd;" horiz-adv-x="1343" d="M49 1022q185 191 363.5 301.5t277.5 110.5q55 0 83 -32t28 -87q0 -113 -92 -326l-242 -565q-105 -258 -105 -344q0 -45 44 -45q18 0 38.5 4t59 20.5t79 44.5t97 81.5t114.5 125.5t129.5 183t143.5 247l219 514h129l-414 -974q-41 -97 -63.5 -149t-70.5 -145.5t-95 -164.5 h135l-41 -88h-155q-209 -264 -469 -264q-83 0 -123.5 36.5t-40.5 96.5q0 19 6.5 41.5t30.5 55.5t63 59t113.5 44.5t171.5 18.5h178q107 169 229 459l64 147q-304 -446 -555 -446q-62 0 -94.5 38t-32.5 99q0 110 84 305l239 565q42 96 62.5 146.5t42.5 118.5t22 102 q0 41 -28 41q-9 0 -27 -4t-78.5 -32.5t-125.5 -77t-166.5 -152.5t-204.5 -244zM121 -406q0 -83 121 -83q87 0 169.5 48.5t172.5 174.5h-162q-55 0 -102.5 -6t-95 -20t-75.5 -43t-28 -71zM989 1473l146 194h145l-242 -194h-49z" />
<glyph unicode="&#xde;" horiz-adv-x="1095" d="M-119 287l58 96q43 -2 120 -2l134 313q0 5 4 13l290 690h125l-139 -334q137 96 291 96q43 0 85 -10.5t81 -33.5t69 -55t48 -79t18 -102q0 -288 -453 -478q-218 -91 -462 -110l-121 -291h-129l118 285h-55q-17 0 -44 1t-38 1zM188 383q254 12 418 72q155 58 240.5 178.5 t85.5 261.5q0 119 -54.5 173t-134.5 54q-33 0 -71 -12.5t-84 -44t-90.5 -78.5t-92 -123t-86.5 -170l-34 -84z" />
<glyph unicode="&#xdf;" horiz-adv-x="751" d="M-346 -518l481 1161q-87 -133 -233 -311l-25 20q116 143 194.5 256t104.5 160.5t70 136.5q64 155 145.5 243.5t163.5 88.5q56 0 85.5 -35.5t29.5 -91.5q0 -40 -13 -78.5t-42 -81t-52.5 -71.5t-66.5 -79l-21 -24l-2 -8q0 -7 10.5 -50t20.5 -104.5t10 -113.5 q0 -111 -53.5 -220t-136.5 -184q181 94 338 295l24 -20q-124 -156 -263.5 -250t-262.5 -117q-28 -4 -45 -4q-58 0 -58 39q0 25 22.5 44t47.5 19q21 0 45 -13t51 -13q46 0 89.5 62.5t69.5 154.5t26 180q0 83 -16.5 142.5t-16.5 68.5q0 25 13 46t42.5 55t48.5 61 q111 148 111 278q0 28 -10.5 53t-32.5 25q-33 0 -67.5 -53t-78.5 -158l-606 -1464z" />
<glyph unicode="&#xe0;" horiz-adv-x="700" d="M-205 113q0 76 52 177.5t132.5 193.5t190.5 160.5t215 78.5v-18q-69 -21 -138 -71t-121.5 -112t-93.5 -129t-63 -127t-22 -100q0 -43 20 -43q29 0 129 119.5t211 269.5q106 143 129 166q35 37 70 37q37 0 37 -37q0 -23 -13 -53q-7 -14 -90 -221t-96 -234q-10 -30 -10 -37 q0 -18 20 -18q33 0 76 55l182 225l27 -20l-221 -273q-48 -58 -84 -80t-76 -22q-31 0 -50.5 16.5t-19.5 44.5q0 44 45 142q27 60 71 167.5t44 114.5q0 11 -6 11q-9 0 -18 -15q-6 -8 -65 -91t-124 -170t-98 -120q-52 -52 -89 -77t-71 -25q-32 0 -57 26t-25 89zM422 1038h125 l-2 -194h-33z" />
<glyph unicode="&#xe1;" horiz-adv-x="700" d="M-205 113q0 76 52 177.5t132.5 193.5t190.5 160.5t215 78.5v-18q-69 -21 -138 -71t-121.5 -112t-93.5 -129t-63 -127t-22 -100q0 -43 20 -43q29 0 129 119.5t211 269.5q106 143 129 166q35 37 70 37q37 0 37 -37q0 -23 -13 -53q-7 -14 -90 -221t-96 -234q-10 -30 -10 -37 q0 -18 20 -18q33 0 76 55l182 225l27 -20l-221 -273q-48 -58 -84 -80t-76 -22q-31 0 -50.5 16.5t-19.5 44.5q0 44 45 142q27 60 71 167.5t44 114.5q0 11 -6 11q-9 0 -18 -15q-6 -8 -65 -91t-124 -170t-98 -120q-52 -52 -89 -77t-71 -25q-32 0 -57 26t-25 89zM379 844 l145 194h146l-242 -194h-49z" />
<glyph unicode="&#xe2;" horiz-adv-x="700" d="M-205 113q0 76 52 177.5t132.5 193.5t190.5 160.5t215 78.5v-18q-69 -21 -138 -71t-121.5 -112t-93.5 -129t-63 -127t-22 -100q0 -43 20 -43q29 0 129 119.5t211 269.5q106 143 129 166q35 37 70 37q37 0 37 -37q0 -23 -13 -53q-7 -14 -90 -221t-96 -234q-10 -30 -10 -37 q0 -18 20 -18q33 0 76 55l182 225l27 -20l-221 -273q-48 -58 -84 -80t-76 -22q-31 0 -50.5 16.5t-19.5 44.5q0 44 45 142q27 60 71 167.5t44 114.5q0 11 -6 11q-9 0 -18 -15q-6 -8 -65 -91t-124 -170t-98 -120q-52 -52 -89 -77t-71 -25q-32 0 -57 26t-25 89zM307 844 l205 192h90l60 -192h-101l-35 133l-145 -133h-74z" />
<glyph unicode="&#xe3;" horiz-adv-x="700" d="M-205 113q0 76 52 177.5t132.5 193.5t190.5 160.5t215 78.5v-18q-69 -21 -138 -71t-121.5 -112t-93.5 -129t-63 -127t-22 -100q0 -43 20 -43q29 0 129 119.5t211 269.5q106 143 129 166q35 37 70 37q37 0 37 -37q0 -23 -13 -53q-7 -14 -90 -221t-96 -234q-10 -30 -10 -37 q0 -18 20 -18q33 0 76 55l182 225l27 -20l-221 -273q-48 -58 -84 -80t-76 -22q-31 0 -50.5 16.5t-19.5 44.5q0 44 45 142q27 60 71 167.5t44 114.5q0 11 -6 11q-9 0 -18 -15q-6 -8 -65 -91t-124 -170t-98 -120q-52 -52 -89 -77t-71 -25q-32 0 -57 26t-25 89zM297 860 q38 89 73 127.5t76 38.5q31 0 73 -41t69 -41q23 0 43.5 16.5t46.5 65.5h53q-39 -87 -76 -126.5t-82 -39.5q-22 0 -43 13t-34 28t-30 28t-32 13q-23 0 -42 -17t-42 -65h-53z" />
<glyph unicode="&#xe4;" horiz-adv-x="700" d="M-205 113q0 76 52 177.5t132.5 193.5t190.5 160.5t215 78.5v-18q-69 -21 -138 -71t-121.5 -112t-93.5 -129t-63 -127t-22 -100q0 -43 20 -43q29 0 129 119.5t211 269.5q106 143 129 166q35 37 70 37q37 0 37 -37q0 -23 -13 -53q-7 -14 -90 -221t-96 -234q-10 -30 -10 -37 q0 -18 20 -18q33 0 76 55l182 225l27 -20l-221 -273q-48 -58 -84 -80t-76 -22q-31 0 -50.5 16.5t-19.5 44.5q0 44 45 142q27 60 71 167.5t44 114.5q0 11 -6 11q-9 0 -18 -15q-6 -8 -65 -91t-124 -170t-98 -120q-52 -52 -89 -77t-71 -25q-32 0 -57 26t-25 89zM326 938 q0 32 21 54t50 22q31 0 52.5 -22t21.5 -54q0 -29 -21.5 -50.5t-52.5 -21.5q-29 0 -50 21.5t-21 50.5zM539 938q0 32 21 54t52 22q30 0 51 -22t21 -54q0 -29 -21.5 -50.5t-50.5 -21.5q-30 0 -51.5 21t-21.5 51z" />
<glyph unicode="&#xe5;" horiz-adv-x="700" d="M-205 113q0 76 52 177.5t132.5 193.5t190.5 160.5t215 78.5v-18q-69 -21 -138 -71t-121.5 -112t-93.5 -129t-63 -127t-22 -100q0 -43 20 -43q29 0 129 119.5t211 269.5q106 143 129 166q35 37 70 37q37 0 37 -37q0 -23 -13 -53q-7 -14 -90 -221t-96 -234q-10 -30 -10 -37 q0 -18 20 -18q33 0 76 55l182 225l27 -20l-221 -273q-48 -58 -84 -80t-76 -22q-31 0 -50.5 16.5t-19.5 44.5q0 44 45 142q27 60 71 167.5t44 114.5q0 11 -6 11q-9 0 -18 -15q-6 -8 -65 -91t-124 -170t-98 -120q-52 -52 -89 -77t-71 -25q-32 0 -57 26t-25 89zM352 934 q0 83 67.5 149t147.5 66q53 0 88 -31.5t35 -81.5q0 -87 -71.5 -150t-147.5 -63q-54 0 -86.5 30.5t-32.5 80.5zM424 926q0 -68 51 -68q57 0 99 62t42 124q0 32 -14 51t-39 19q-58 0 -98.5 -62.5t-40.5 -125.5z" />
<glyph unicode="&#xe6;" horiz-adv-x="927" d="M-205 113q0 76 52 177.5t132.5 193.5t190.5 160.5t215 78.5v-18q-69 -21 -138 -71t-121.5 -112t-93.5 -129t-63 -127t-22 -100q0 -43 20 -43q29 0 129 119.5t211 269.5q15 20 40 54q72 98 100 127.5t57 29.5q35 0 35 -33q0 -10 -2 -16q79 45 137 45q50 0 75 -30.5 t25 -82.5q0 -84 -72 -164.5t-171 -126.5t-185 -47q-27 -83 -27 -135q0 -92 72 -92q164 0 438 342l25 -18q-79 -101 -150 -173.5t-118.5 -108.5t-93.5 -56t-68 -23.5t-49 -3.5q-28 0 -55 7.5t-54.5 24.5t-44 51.5t-16.5 82.5q0 126 69 248q-163 -237 -237 -314 q-52 -52 -89 -77t-71 -25q-32 0 -57 26t-25 89zM356 297q90 15 165.5 73.5t114 129.5t38.5 133q0 45 -33 45q-53 0 -142 -121.5t-143 -259.5z" />
<glyph unicode="&#xe7;" horiz-adv-x="585" d="M-164 -264l17 22q33 -22 88 -22q53 0 90 29.5t37 74.5q0 26 -15 41t-37 15q-37 0 -73 -33h-27l96 137q-24 3 -47.5 11.5t-51.5 26.5t-45.5 55t-17.5 87q0 92 40.5 179t101.5 150.5t131.5 112t133 73t103.5 24.5q40 0 70.5 -25.5t30.5 -75.5q0 -20 -2 -32 q-9 -38 -73 -76.5t-105 -38.5q36 45 57.5 91t21.5 77q0 41 -34 41q-61 0 -148 -100t-150 -231.5t-63 -217.5q0 -90 84 -90q164 0 438 342l25 -18q-77 -99 -146 -170.5t-116 -108t-91 -57t-67.5 -25t-50.5 -4.5l-64 -90q31 16 89 16q38 0 64 -21t26 -52q0 -59 -62.5 -103.5 t-146.5 -44.5q-65 0 -111 31z" />
<glyph unicode="&#xe8;" horiz-adv-x="573" d="M-150 166q0 106 52.5 211.5t127 178t154 118t135.5 45.5q51 0 76 -30.5t25 -82.5q0 -84 -71.5 -164.5t-170 -126.5t-184.5 -47q-29 -79 -29 -135q0 -92 72 -92q164 0 438 342l27 -18q-79 -101 -151 -173.5t-119.5 -108.5t-94 -56t-68.5 -23.5t-49 -3.5t-53.5 7.5 t-54.5 24.5t-45 51.5t-17 82.5zM2 297q90 15 165 73.5t113.5 129.5t38.5 133q0 45 -32 45q-53 0 -142 -121.5t-143 -259.5zM295 1038h125l-2 -194h-33z" />
<glyph unicode="&#xe9;" horiz-adv-x="573" d="M-150 166q0 106 52.5 211.5t127 178t154 118t135.5 45.5q51 0 76 -30.5t25 -82.5q0 -84 -71.5 -164.5t-170 -126.5t-184.5 -47q-29 -79 -29 -135q0 -92 72 -92q164 0 438 342l27 -18q-79 -101 -151 -173.5t-119.5 -108.5t-94 -56t-68.5 -23.5t-49 -3.5t-53.5 7.5 t-54.5 24.5t-45 51.5t-17 82.5zM2 297q90 15 165 73.5t113.5 129.5t38.5 133q0 45 -32 45q-53 0 -142 -121.5t-143 -259.5zM252 844l145 194h146l-242 -194h-49z" />
<glyph unicode="&#xea;" horiz-adv-x="573" d="M-150 166q0 106 52.5 211.5t127 178t154 118t135.5 45.5q51 0 76 -30.5t25 -82.5q0 -84 -71.5 -164.5t-170 -126.5t-184.5 -47q-29 -79 -29 -135q0 -92 72 -92q164 0 438 342l27 -18q-79 -101 -151 -173.5t-119.5 -108.5t-94 -56t-68.5 -23.5t-49 -3.5t-53.5 7.5 t-54.5 24.5t-45 51.5t-17 82.5zM2 297q90 15 165 73.5t113.5 129.5t38.5 133q0 45 -32 45q-53 0 -142 -121.5t-143 -259.5zM180 844l205 192h90l60 -192h-101l-35 133l-145 -133h-74z" />
<glyph unicode="&#xeb;" horiz-adv-x="573" d="M-150 166q0 106 52.5 211.5t127 178t154 118t135.5 45.5q51 0 76 -30.5t25 -82.5q0 -84 -71.5 -164.5t-170 -126.5t-184.5 -47q-29 -79 -29 -135q0 -92 72 -92q164 0 438 342l27 -18q-79 -101 -151 -173.5t-119.5 -108.5t-94 -56t-68.5 -23.5t-49 -3.5t-53.5 7.5 t-54.5 24.5t-45 51.5t-17 82.5zM2 297q90 15 165 73.5t113.5 129.5t38.5 133q0 45 -32 45q-53 0 -142 -121.5t-143 -259.5zM199 938q0 32 21 54t50 22q31 0 52.5 -22t21.5 -54q0 -29 -21.5 -50.5t-52.5 -21.5q-29 0 -50 21.5t-21 50.5zM412 938q0 32 21 54t52 22 q30 0 51 -22t21 -54q0 -29 -21.5 -50.5t-50.5 -21.5q-31 0 -52 21t-21 51z" />
<glyph unicode="&#xec;" horiz-adv-x="440" d="M-117 358l226 279q32 39 58 60.5t54 21.5q27 0 41 -15t14 -36q0 -33 -24 -93l-168 -405q-10 -30 -10 -37q0 -18 20 -18q33 0 76 55l182 225l27 -20l-221 -273q-48 -58 -84 -80t-76 -22q-31 0 -50.5 16.5t-19.5 44.5q0 40 45 142l160 370q2 4 2 11q0 12 -10 12t-19 -12 l-198 -244zM176 1038h125l-2 -194h-33z" />
<glyph unicode="&#xed;" horiz-adv-x="440" d="M-117 358l226 279q32 39 58 60.5t54 21.5q27 0 41 -15t14 -36q0 -33 -24 -93l-168 -405q-10 -30 -10 -37q0 -18 20 -18q33 0 76 55l182 225l27 -20l-221 -273q-48 -58 -84 -80t-76 -22q-31 0 -50.5 16.5t-19.5 44.5q0 40 45 142l160 370q2 4 2 11q0 12 -10 12t-19 -12 l-198 -244zM133 844l146 194h145l-242 -194h-49z" />
<glyph unicode="&#xee;" horiz-adv-x="440" d="M-117 358l226 279q32 39 58 60.5t54 21.5q27 0 41 -15t14 -36q0 -33 -24 -93l-168 -405q-10 -30 -10 -37q0 -18 20 -18q33 0 76 55l182 225l27 -20l-221 -273q-48 -58 -84 -80t-76 -22q-31 0 -50.5 16.5t-19.5 44.5q0 40 45 142l160 370q2 4 2 11q0 12 -10 12t-19 -12 l-198 -244zM61 844l205 192h90l60 -192h-101l-34 133l-146 -133h-74z" />
<glyph unicode="&#xef;" horiz-adv-x="440" d="M-117 358l226 279q32 39 58 60.5t54 21.5q27 0 41 -15t14 -36q0 -33 -24 -93l-168 -405q-10 -30 -10 -37q0 -18 20 -18q33 0 76 55l182 225l27 -20l-221 -273q-48 -58 -84 -80t-76 -22q-31 0 -50.5 16.5t-19.5 44.5q0 40 45 142l160 370q2 4 2 11q0 12 -10 12t-19 -12 l-198 -244zM80 938q0 32 21 54t51 22q31 0 52 -22t21 -54q0 -30 -21.5 -51t-51.5 -21q-29 0 -50.5 21.5t-21.5 50.5zM293 938q0 32 21.5 54t52.5 22q29 0 50 -22t21 -54q0 -29 -21 -50.5t-50 -21.5q-31 0 -52.5 21.5t-21.5 50.5z" />
<glyph unicode="&#xf0;" horiz-adv-x="608" d="M-139 203q0 120 67 235.5t179.5 189.5t234.5 74q19 0 43 -4q-11 174 -96 328l-187 -125l-26 37l188 129q-51 77 -98 135l33 25q66 -78 106 -131l178 121l25 -39l-174 -119q151 -221 151 -481q0 -99 -35.5 -203t-93 -187t-138 -136.5t-163.5 -53.5q-80 0 -137 53.5 t-57 151.5zM-31 133q0 -40 16 -68t48 -28q45 0 106.5 55.5t116 139.5t93 193.5t38.5 205.5v33q-20 4 -35 4q-58 0 -112.5 -28.5t-95.5 -75t-75 -104.5t-55.5 -118t-33 -114t-11.5 -95z" />
<glyph unicode="&#xf1;" horiz-adv-x="786" d="M-117 358l226 279q32 39 58 60.5t54 21.5q27 0 41 -15t14 -36q0 -33 -24 -93l-139 -327q-7 -14 -7 -23q0 -10 9 -10t24 21l209 311q65 98 106.5 137t84.5 39q77 0 77 -59q0 -26 -14 -68l-174 -426q-10 -30 -10 -37q0 -18 20 -18q33 0 76 55l182 225l27 -20l-221 -273 q-48 -58 -84 -80t-76 -22q-31 0 -50.5 16.5t-19.5 44.5q0 40 45 142l162 383q2 6 2 14q0 9 -5 15t-13 6q-22 0 -37 -25l-330 -490q-72 -106 -127 -106q-45 0 -45 43q0 39 43 139l166 391q2 4 2 11q0 12 -10 12t-19 -12l-198 -244zM225 860q38 89 73 127.5t77 38.5 q31 0 72.5 -41t68.5 -41q23 0 43.5 16.5t46.5 65.5h53q-39 -88 -75.5 -127t-81.5 -39q-28 0 -53 20.5t-46.5 41t-40.5 20.5q-23 0 -41 -16.5t-42 -65.5h-54z" />
<glyph unicode="&#xf2;" horiz-adv-x="667" d="M-139 203q0 164 109.5 309t285.5 211l8 -14q-144 -125 -219.5 -285t-75.5 -291q0 -39 18 -67.5t50 -28.5q82 0 215 190q-90 48 -90 181q0 104 66.5 191t136.5 87q46 0 83 -39.5t37 -126.5q0 -128 -86 -274q38 8 77 39t93 98l25 -21q-61 -79 -112.5 -113.5t-106.5 -39.5 q-63 -94 -147.5 -152.5t-172.5 -58.5q-80 0 -137 53.5t-57 151.5zM199 412q0 -114 71 -156q56 91 91.5 183t35.5 155q0 29 -15 40t-34 11q-42 0 -95.5 -74.5t-53.5 -158.5zM283 1038h125l-2 -194h-33z" />
<glyph unicode="&#xf3;" horiz-adv-x="667" d="M-139 203q0 164 109.5 309t285.5 211l8 -14q-144 -125 -219.5 -285t-75.5 -291q0 -39 18 -67.5t50 -28.5q82 0 215 190q-90 48 -90 181q0 104 66.5 191t136.5 87q46 0 83 -39.5t37 -126.5q0 -128 -86 -274q38 8 77 39t93 98l25 -21q-61 -79 -112.5 -113.5t-106.5 -39.5 q-63 -94 -147.5 -152.5t-172.5 -58.5q-80 0 -137 53.5t-57 151.5zM199 412q0 -114 71 -156q56 91 91.5 183t35.5 155q0 29 -15 40t-34 11q-42 0 -95.5 -74.5t-53.5 -158.5zM240 844l145 194h145l-241 -194h-49z" />
<glyph unicode="&#xf4;" horiz-adv-x="667" d="M-139 203q0 164 109.5 309t285.5 211l8 -14q-144 -125 -219.5 -285t-75.5 -291q0 -39 18 -67.5t50 -28.5q82 0 215 190q-90 48 -90 181q0 104 66.5 191t136.5 87q46 0 83 -39.5t37 -126.5q0 -128 -86 -274q38 8 77 39t93 98l25 -21q-61 -79 -112.5 -113.5t-106.5 -39.5 q-63 -94 -147.5 -152.5t-172.5 -58.5q-80 0 -137 53.5t-57 151.5zM168 844l205 192h90l59 -192h-100l-35 133l-145 -133h-74zM199 412q0 -114 71 -156q56 91 91.5 183t35.5 155q0 29 -15 40t-34 11q-42 0 -95.5 -74.5t-53.5 -158.5z" />
<glyph unicode="&#xf5;" horiz-adv-x="667" d="M-139 203q0 164 109.5 309t285.5 211l8 -14q-144 -125 -219.5 -285t-75.5 -291q0 -39 18 -67.5t50 -28.5q82 0 215 190q-90 48 -90 181q0 104 66.5 191t136.5 87q46 0 83 -39.5t37 -126.5q0 -128 -86 -274q38 8 77 39t93 98l25 -21q-61 -79 -112.5 -113.5t-106.5 -39.5 q-63 -94 -147.5 -152.5t-172.5 -58.5q-80 0 -137 53.5t-57 151.5zM158 860q38 89 73 127.5t76 38.5q31 0 73 -41t69 -41q23 0 43.5 16.5t46.5 65.5h53q-39 -87 -76 -126.5t-82 -39.5q-22 0 -43 13t-34 28t-30 28t-32 13q-23 0 -42 -17t-42 -65h-53zM199 412q0 -114 71 -156 q56 91 91.5 183t35.5 155q0 29 -15 40t-34 11q-42 0 -95.5 -74.5t-53.5 -158.5z" />
<glyph unicode="&#xf6;" horiz-adv-x="667" d="M-139 203q0 164 109.5 309t285.5 211l8 -14q-144 -125 -219.5 -285t-75.5 -291q0 -39 18 -67.5t50 -28.5q82 0 215 190q-90 48 -90 181q0 104 66.5 191t136.5 87q46 0 83 -39.5t37 -126.5q0 -128 -86 -274q38 8 77 39t93 98l25 -21q-61 -79 -112.5 -113.5t-106.5 -39.5 q-63 -94 -147.5 -152.5t-172.5 -58.5q-80 0 -137 53.5t-57 151.5zM186 938q0 32 21 54t51 22q31 0 52.5 -22t21.5 -54q0 -29 -21.5 -50.5t-52.5 -21.5q-29 0 -50.5 21.5t-21.5 50.5zM199 412q0 -114 71 -156q56 91 91.5 183t35.5 155q0 29 -15 40t-34 11q-42 0 -95.5 -74.5 t-53.5 -158.5zM399 938q0 32 21.5 54t52.5 22q30 0 51 -22t21 -54q0 -29 -21.5 -50.5t-50.5 -21.5q-31 0 -52.5 21.5t-21.5 50.5z" />
<glyph unicode="&#xf7;" d="M6 547l33 76h625l-31 -76h-627zM193 408q0 29 21 50t50 21q31 0 53.5 -21t22.5 -50q0 -31 -22.5 -52.5t-53.5 -21.5q-29 0 -50 21.5t-21 52.5zM322 764q0 29 21 50.5t50 21.5q31 0 52.5 -21.5t21.5 -50.5q0 -31 -21.5 -52.5t-52.5 -21.5q-29 0 -50 21.5t-21 52.5z" />
<glyph unicode="&#xf8;" horiz-adv-x="667" d="M-244 -125l152 186q-47 50 -47 142q0 164 109.5 309t285.5 211l8 -14q-143 -124 -218 -281.5t-77 -288.5l193 238v31q0 104 66.5 191t136.5 87q22 0 41 -8l147 180l31 -24l-144 -179q45 -42 45 -135q0 -128 -86 -274q38 8 77 39t93 98l25 -21q-61 -79 -112.5 -113.5 t-106.5 -39.5q-63 -94 -147.5 -152.5t-172.5 -58.5q-70 0 -116 35l-148 -180zM-20 84q16 -47 57 -47q82 0 215 190q-58 34 -80 99zM199 422l176 217q-15 6 -27 6q-41 0 -93.5 -70.5t-55.5 -152.5zM203 360q13 -75 67 -104q56 91 91.5 183t35.5 155v6z" />
<glyph unicode="&#xf9;" horiz-adv-x="798" d="M-117 358l226 279q32 39 58 60.5t54 21.5q27 0 41 -15t14 -36q0 -33 -24 -93l-150 -356q-24 -57 -24 -92t37 -35q26 0 72 68.5t115 195t101 176.5q78 124 100 149q42 40 91 42q20 0 32.5 -11t12.5 -28q0 -28 -10 -51q-7 -14 -91.5 -225t-97.5 -238q-10 -20 -10 -37 q0 -18 21 -18q32 0 75 55l183 225l24 -20l-221 -273q-45 -58 -81.5 -80t-76.5 -22q-31 0 -50 16.5t-19 44.5q0 51 45 142q26 58 70 166.5t44 115.5q0 11 -6 11q-9 0 -18 -15q-41 -63 -89 -147.5t-78 -135.5t-66 -101t-73 -73.5t-79 -23.5q-35 0 -57.5 24.5t-22.5 67.5 q0 63 29 121l149 360q2 4 2 11q0 12 -10 12t-19 -12l-198 -244zM360 1038h125l-2 -194h-32z" />
<glyph unicode="&#xfa;" horiz-adv-x="798" d="M-117 358l226 279q32 39 58 60.5t54 21.5q27 0 41 -15t14 -36q0 -33 -24 -93l-150 -356q-24 -57 -24 -92t37 -35q26 0 72 68.5t115 195t101 176.5q78 124 100 149q42 40 91 42q20 0 32.5 -11t12.5 -28q0 -28 -10 -51q-7 -14 -91.5 -225t-97.5 -238q-10 -20 -10 -37 q0 -18 21 -18q32 0 75 55l183 225l24 -20l-221 -273q-45 -58 -81.5 -80t-76.5 -22q-31 0 -50 16.5t-19 44.5q0 51 45 142q26 58 70 166.5t44 115.5q0 11 -6 11q-9 0 -18 -15q-41 -63 -89 -147.5t-78 -135.5t-66 -101t-73 -73.5t-79 -23.5q-35 0 -57.5 24.5t-22.5 67.5 q0 63 29 121l149 360q2 4 2 11q0 12 -10 12t-19 -12l-198 -244zM317 844l146 194h145l-241 -194h-50z" />
<glyph unicode="&#xfb;" horiz-adv-x="798" d="M-117 358l226 279q32 39 58 60.5t54 21.5q27 0 41 -15t14 -36q0 -33 -24 -93l-150 -356q-24 -57 -24 -92t37 -35q26 0 72 68.5t115 195t101 176.5q78 124 100 149q42 40 91 42q20 0 32.5 -11t12.5 -28q0 -28 -10 -51q-7 -14 -91.5 -225t-97.5 -238q-10 -20 -10 -37 q0 -18 21 -18q32 0 75 55l183 225l24 -20l-221 -273q-45 -58 -81.5 -80t-76.5 -22q-31 0 -50 16.5t-19 44.5q0 51 45 142q26 58 70 166.5t44 115.5q0 11 -6 11q-9 0 -18 -15q-41 -63 -89 -147.5t-78 -135.5t-66 -101t-73 -73.5t-79 -23.5q-35 0 -57.5 24.5t-22.5 67.5 q0 63 29 121l149 360q2 4 2 11q0 12 -10 12t-19 -12l-198 -244zM246 844l205 192h90l59 -192h-100l-35 133l-146 -133h-73z" />
<glyph unicode="&#xfc;" horiz-adv-x="798" d="M-117 358l226 279q32 39 58 60.5t54 21.5q27 0 41 -15t14 -36q0 -33 -24 -93l-150 -356q-24 -57 -24 -92t37 -35q26 0 72 68.5t115 195t101 176.5q78 124 100 149q42 40 91 42q20 0 32.5 -11t12.5 -28q0 -28 -10 -51q-7 -14 -91.5 -225t-97.5 -238q-10 -20 -10 -37 q0 -18 21 -18q32 0 75 55l183 225l24 -20l-221 -273q-45 -58 -81.5 -80t-76.5 -22q-31 0 -50 16.5t-19 44.5q0 51 45 142q26 58 70 166.5t44 115.5q0 11 -6 11q-9 0 -18 -15q-41 -63 -89 -147.5t-78 -135.5t-66 -101t-73 -73.5t-79 -23.5q-35 0 -57.5 24.5t-22.5 67.5 q0 63 29 121l149 360q2 4 2 11q0 12 -10 12t-19 -12l-198 -244zM264 938q0 32 21 54t51 22q31 0 52.5 -22t21.5 -54q0 -29 -21.5 -50.5t-52.5 -21.5q-29 0 -50.5 21.5t-21.5 50.5zM477 938q0 32 21.5 54t52.5 22q30 0 51 -22t21 -54q0 -29 -21.5 -50.5t-50.5 -21.5 q-31 0 -52.5 21.5t-21.5 50.5z" />
<glyph unicode="&#xfd;" horiz-adv-x="790" d="M-117 358l226 279q32 39 58 60.5t54 21.5q27 0 41 -15t14 -36q0 -33 -24 -93l-150 -356q-24 -57 -24 -92t37 -35q26 0 72 68.5t115 195t101 176.5q78 124 100 149q42 40 91 42q20 0 32.5 -11t12.5 -28q0 -28 -10 -51l-248 -574q161 139 315 326l25 -20 q-90 -114 -173 -195.5t-198 -179.5l-203 -467l-149 -41q426 946 444 995q4 5 3.5 12t-7.5 7q-9 0 -18 -15q-41 -63 -89 -147.5t-78 -135.5t-66 -101t-73 -73.5t-79 -23.5q-35 0 -57.5 24.5t-22.5 67.5q0 63 29 121l149 360q2 4 2 11q0 12 -10 12t-19 -12l-198 -244zM317 844 l146 194h145l-241 -194h-50z" />
<glyph unicode="&#xfe;" horiz-adv-x="798" d="M-354 -518q36 81 89 204t87 206l35 83l278 668q-59 -95 -235 -313l-25 18q120 150 190 246t95.5 140t60.5 114l158 371h121l-398 -947q-4 -8 -4 -16q0 -10 6 -10q7 0 19 12q2 3 41.5 58t77.5 107t83.5 110.5t71.5 84.5q43 41 62 58t47 33t51 16q31 0 57.5 -29t26.5 -92 q0 -131 -115.5 -286t-269.5 -246q271 87 451 319l24 -20q-52 -65 -109.5 -118t-106 -88.5t-108 -64t-98.5 -43.5t-97 -28t-83.5 -17.5t-75.5 -11.5v18q95 35 180 105.5t139 148.5t85.5 153t31.5 126q0 47 -22 47q-37 0 -150 -140.5t-222.5 -308.5t-151.5 -258 q-30 -65 -89.5 -207t-66.5 -157z" />
<glyph unicode="&#xff;" horiz-adv-x="790" d="M-117 358l226 279q32 39 58 60.5t54 21.5q27 0 41 -15t14 -36q0 -33 -24 -93l-150 -356q-24 -57 -24 -92t37 -35q26 0 72 68.5t115 195t101 176.5q78 124 100 149q42 40 91 42q20 0 32.5 -11t12.5 -28q0 -28 -10 -51l-248 -574q161 139 315 326l25 -20 q-90 -114 -173 -195.5t-198 -179.5l-203 -467l-149 -41q426 946 444 995q4 5 3.5 12t-7.5 7q-9 0 -18 -15q-41 -63 -89 -147.5t-78 -135.5t-66 -101t-73 -73.5t-79 -23.5q-35 0 -57.5 24.5t-22.5 67.5q0 63 29 121l149 360q2 4 2 11q0 12 -10 12t-19 -12l-198 -244zM264 938 q0 32 21 54t51 22q31 0 52.5 -22t21.5 -54q0 -29 -21.5 -50.5t-52.5 -21.5q-29 0 -50.5 21.5t-21.5 50.5zM477 938q0 32 21.5 54t52.5 22q30 0 51 -22t21 -54q0 -29 -21.5 -50.5t-50.5 -21.5q-31 0 -52.5 21.5t-21.5 50.5z" />
<glyph unicode="&#x152;" horiz-adv-x="1683" d="M14 358q0 172 64 355q33 96 78.5 183.5t91 150t92.5 115.5t87.5 87t72.5 58t50 35l19 10l19 -23q-8 -7 -23 -20.5t-59 -65.5t-86 -115.5t-96.5 -174t-98.5 -236.5q-75 -213 -75 -389q0 -134 49.5 -214.5t134.5 -80.5q64 0 142.5 48.5t155.5 129.5t151 192t130.5 230 t90.5 250.5t34 246.5q0 43 -4.5 82t-18 86t-44.5 75t-76 28q-86 0 -173 -99.5t-141.5 -249t-54.5 -290.5q0 -108 31 -160.5t102 -52.5q44 0 73 17t36 32l10 -27q-60 -90 -166 -90q-88 0 -137 72.5t-49 202.5q0 140 76 300.5t190.5 270t216.5 109.5q31 0 62 -11t63 -38.5 t57 -69t40.5 -109t15.5 -151.5v-25q6 1 41 6q16 94 69 184t138.5 152t179.5 62q52 0 85.5 -34.5t33.5 -88.5q0 -93 -105.5 -170.5t-296.5 -124.5q5 -24 25 -77.5t20 -84.5q0 -50 -22.5 -91t-58 -69.5t-79 -55.5t-86.5 -57.5t-78.5 -66.5t-58 -90.5t-22.5 -122.5 q0 -63 24.5 -114.5t63.5 -83t85 -48t93 -16.5q38 0 68 4t76 18t100 48t114 86l27 -33q-128 -107 -227 -144.5t-211 -37.5q-140 0 -236.5 66.5t-109.5 187.5q-118 -122 -245 -192.5t-239 -70.5q-137 0 -219 106.5t-82 278.5zM1057 633q45 27 64.5 39.5t47.5 35t39 43t11 44.5 q0 11 -17.5 69t-17.5 115v14q-6 -1 -19.5 -3t-19.5 -3q-11 -169 -88 -354zM1286 1061q154 37 232.5 102t78.5 154q0 74 -69 74q-31 0 -71 -23t-79 -62.5t-65.5 -102t-26.5 -132.5v-10z" />
<glyph unicode="&#x153;" horiz-adv-x="1007" d="M-139 203q0 164 109.5 309t285.5 211l8 -14q-144 -125 -219.5 -285t-75.5 -291q0 -39 18 -67.5t50 -28.5q82 0 215 190q-90 48 -90 181q0 104 66.5 191t136.5 87q37 0 71 -27.5t45 -87.5q70 67 145.5 107.5t129.5 40.5q98 0 98 -113q0 -84 -71.5 -164.5t-170 -126.5 t-184.5 -47q-29 -89 -29 -135q0 -92 72 -92q79 0 184 76.5t256 265.5l25 -18q-79 -101 -150 -173.5t-118.5 -108.5t-93.5 -56t-68 -23.5t-49 -3.5q-51 0 -99 25.5t-65 83.5q-114 -111 -238 -111q-80 0 -137 53.5t-57 151.5zM199 412q0 -114 71 -156q56 91 91.5 183t35.5 155 q0 29 -15 40t-34 11q-42 0 -95.5 -74.5t-53.5 -158.5zM438 297q90 15 165 73.5t113 129.5t38 133q0 45 -31 45q-54 0 -143 -121.5t-142 -259.5z" />
<glyph unicode="&#x178;" horiz-adv-x="1343" d="M49 1022q185 191 363.5 301.5t277.5 110.5q55 0 83 -32t28 -87q0 -113 -92 -326l-242 -565q-105 -258 -105 -344q0 -45 44 -45q18 0 38.5 4t59 20.5t79 44.5t97 81.5t114.5 125.5t129.5 183t143.5 247l219 514h129l-414 -974q-41 -97 -63.5 -149t-70.5 -145.5t-95 -164.5 h135l-41 -88h-155q-209 -264 -469 -264q-83 0 -123.5 36.5t-40.5 96.5q0 19 6.5 41.5t30.5 55.5t63 59t113.5 44.5t171.5 18.5h178q107 169 229 459l64 147q-304 -446 -555 -446q-62 0 -94.5 38t-32.5 99q0 110 84 305l239 565q42 96 62.5 146.5t42.5 118.5t22 102 q0 41 -28 41q-9 0 -27 -4t-78.5 -32.5t-125.5 -77t-166.5 -152.5t-204.5 -244zM121 -406q0 -83 121 -83q87 0 169.5 48.5t172.5 174.5h-162q-55 0 -102.5 -6t-95 -20t-75.5 -43t-28 -71zM936 1567q0 32 21 53.5t51 21.5q31 0 52 -21.5t21 -53.5q0 -29 -21.5 -50.5 t-51.5 -21.5q-29 0 -50.5 21.5t-21.5 50.5zM1149 1567q0 32 21.5 53.5t52.5 21.5q30 0 50.5 -21.5t20.5 -53.5q0 -29 -21 -50.5t-50 -21.5q-31 0 -52.5 21.5t-21.5 50.5z" />
<glyph unicode="&#x2c6;" horiz-adv-x="499" d="M102 844l205 192h90l60 -192h-101l-34 133l-146 -133h-74z" />
<glyph unicode="&#x2dc;" horiz-adv-x="499" d="M92 860q38 89 73 127.5t77 38.5q31 0 72.5 -41t68.5 -41q23 0 43.5 16.5t46.5 65.5h53q-39 -88 -75.5 -127t-81.5 -39q-28 0 -53 20.5t-46.5 41t-40.5 20.5q-23 0 -42 -17t-42 -65h-53z" />
<glyph unicode="&#x2000;" horiz-adv-x="920" />
<glyph unicode="&#x2001;" horiz-adv-x="1841" />
<glyph unicode="&#x2002;" horiz-adv-x="920" />
<glyph unicode="&#x2003;" horiz-adv-x="1841" />
<glyph unicode="&#x2004;" horiz-adv-x="613" />
<glyph unicode="&#x2005;" horiz-adv-x="460" />
<glyph unicode="&#x2006;" horiz-adv-x="306" />
<glyph unicode="&#x2007;" horiz-adv-x="306" />
<glyph unicode="&#x2008;" horiz-adv-x="230" />
<glyph unicode="&#x2009;" horiz-adv-x="368" />
<glyph unicode="&#x200a;" horiz-adv-x="102" />
<glyph unicode="&#x2010;" d="M55 412l39 116h506l-39 -116h-506z" />
<glyph unicode="&#x2011;" d="M55 412l39 116h506l-39 -116h-506z" />
<glyph unicode="&#x2012;" d="M55 412l39 116h506l-39 -116h-506z" />
<glyph unicode="&#x2013;" horiz-adv-x="1024" d="M25 426l36 86h793l-39 -86h-790z" />
<glyph unicode="&#x2014;" horiz-adv-x="2048" d="M-117 426l37 86h2087l-39 -86h-2085z" />
<glyph unicode="&#x2018;" horiz-adv-x="219" d="M152 1133q0 50 49 105t110 87l19 -31q-78 -46 -92 -92q27 -6 44 -25.5t17 -43.5q0 -30 -22 -52t-50 -22q-32 0 -53.5 21.5t-21.5 52.5z" />
<glyph unicode="&#x2019;" horiz-adv-x="219" d="M152 1090q81 48 92 92q-26 6 -43 26t-17 43q0 31 21.5 52.5t50.5 21.5q31 0 52.5 -21.5t21.5 -52.5q0 -50 -49 -104.5t-111 -87.5z" />
<glyph unicode="&#x201a;" horiz-adv-x="219" d="M-131 -102q80 51 90 94q-26 6 -42.5 25t-16.5 44q0 31 21 52.5t50 21.5q31 0 52.5 -22t21.5 -54q0 -49 -49 -103.5t-111 -88.5z" />
<glyph unicode="&#x201c;" horiz-adv-x="409" d="M152 1133q0 50 49 105t110 87l19 -31q-78 -46 -92 -92q27 -6 44 -25.5t17 -43.5q0 -30 -22 -52t-50 -22q-32 0 -53.5 21.5t-21.5 52.5zM342 1133q0 50 49 104.5t111 87.5l18 -31q-81 -48 -92 -92q27 -6 43 -25.5t16 -43.5q0 -31 -20.5 -52.5t-48.5 -21.5q-32 0 -54 21.5 t-22 52.5z" />
<glyph unicode="&#x201d;" horiz-adv-x="409" d="M152 1090q81 48 92 92q-26 6 -43 26t-17 43q0 31 21.5 52.5t50.5 21.5q31 0 52.5 -21.5t21.5 -52.5q0 -50 -49 -104.5t-111 -87.5zM342 1090q81 48 92 92q-27 6 -43 25.5t-16 43.5q0 31 20.5 52.5t48.5 21.5q32 0 54 -21.5t22 -52.5q0 -50 -49 -104.5t-111 -87.5z" />
<glyph unicode="&#x201e;" horiz-adv-x="409" d="M-131 -102q80 51 90 94q-26 6 -42.5 25t-16.5 44q0 31 21 52.5t50 21.5q31 0 52.5 -22t21.5 -54q0 -49 -49 -103.5t-111 -88.5zM57 -102q84 54 93 94q-26 6 -43 25t-17 44q0 31 21.5 52.5t50.5 21.5q31 0 52.5 -22t21.5 -54q0 -49 -49 -103.5t-111 -88.5z" />
<glyph unicode="&#x2022;" horiz-adv-x="450" d="M98 690q0 45 33 78t80 33q44 0 77.5 -33.5t33.5 -77.5q0 -47 -33 -79.5t-78 -32.5q-47 0 -80 32.5t-33 79.5z" />
<glyph unicode="&#x2026;" horiz-adv-x="804" d="M-100 63q0 29 21 50.5t50 21.5q31 0 52.5 -21.5t21.5 -50.5q0 -31 -21.5 -52t-52.5 -21q-29 0 -50 21t-21 52zM168 63q0 29 21.5 50.5t50.5 21.5q30 0 51.5 -21.5t21.5 -50.5q0 -31 -21 -52t-52 -21q-30 0 -51 21t-21 52zM436 63q0 29 21.5 50.5t50.5 21.5 q31 0 52.5 -21.5t21.5 -50.5q0 -31 -21.5 -52t-52.5 -21q-30 0 -51 21t-21 52z" />
<glyph unicode="&#x202f;" horiz-adv-x="368" />
<glyph unicode="&#x2039;" horiz-adv-x="450" d="M-10 371l334 227l-45 -102l-187 -125l78 -125l-45 -103z" />
<glyph unicode="&#x203a;" horiz-adv-x="450" d="M-59 143l45 103l184 125l-76 125l45 102l135 -227z" />
<glyph unicode="&#x205f;" horiz-adv-x="460" />
<glyph unicode="&#x20ac;" horiz-adv-x="954" d="M-78 473l25 53h94q5 20 29 88h-101l25 52h98q67 153 179 281.5t232 200t218 71.5q112 0 182 -62t70 -160q0 -100 -83.5 -181t-205.5 -124l-18 31q100 42 154 117.5t54 167.5q0 74 -36.5 122t-100.5 48q-87 0 -185.5 -73t-183 -188.5t-143.5 -250.5h355l-23 -52h-352 q-23 -60 -31 -88h348l-22 -53h-338q-23 -90 -23 -162q0 -137 59 -202.5t154 -65.5q132 0 256 121l27 -35q-152 -143 -330 -143q-40 0 -78.5 9t-78.5 32t-70 57.5t-49 91.5t-19 129q0 81 19 168h-107z" />
<glyph unicode="&#x2122;" horiz-adv-x="1396" d="M160 1026q0 83 96 141t231 58q150 0 316 -80l-29 -82q-77 43 -162 72l-227 -541h-86l236 559q-54 10 -113 10q-98 0 -160.5 -34t-62.5 -87q0 -14 9 -18t30 -4h108l-24 -59h-111q-22 0 -36.5 18.5t-14.5 46.5zM596 594l201 473q29 69 41 113l86 16q-1 -20 -27 -90 q82 94 156 94q26 0 41.5 -14t15.5 -37q0 -29 -12 -64q89 113 155 113q32 0 48 -18.5t16 -46.5q0 -43 -33 -129l-172 -410h-88l174 410q45 105 45 135q0 18 -12 18q-3 0 -8 -2t-23.5 -15t-39.5 -34.5t-54 -67.5t-68 -108l-141 -336h-86l172 412q47 106 47 137q0 12 -12 12 q-2 0 -7 -1t-22 -11t-36 -27.5t-49.5 -56.5t-63.5 -92l-160 -373h-84z" />
<glyph unicode="&#x25fc;" horiz-adv-x="716" d="M0 0v717h717v-717h-717z" />
</font>
</defs>
</svg>
